<svg width="407" height="422" viewBox="0 0 407 422" fill="none" xmlns="http://www.w3.org/2000/svg">
<path d="M327.522 79.4782C301.509 53.4656 268.367 35.7509 232.287 28.574C196.206 21.3972 158.808 25.0806 124.821 39.1585C90.8338 53.2364 61.7846 77.0765 41.3466 107.664C20.9087 138.252 9.99999 174.213 10 211C10 247.787 20.9087 283.749 41.3467 314.336C61.7846 344.924 90.8338 368.764 124.821 382.842C158.808 396.92 196.206 400.603 232.287 393.426C268.367 386.249 301.509 368.535 327.522 342.522" stroke="#454545" stroke-width="20"/>
<path d="M19.7838 270.53C32.2264 307.362 55.897 339.369 87.4691 362.053C119.041 384.737 156.928 396.959 195.804 397" stroke="#FF6700" stroke-width="30"/>
<path d="M196 25.0001C157.216 25.0001 119.402 37.1237 87.8489 59.6748" stroke="#FF9900" stroke-width="30"/>
<path d="M196 397C220.426 397 244.613 392.189 267.179 382.842C289.746 373.494 310.25 359.794 327.522 342.522C344.794 325.25 358.494 304.746 367.842 282.179C377.189 259.613 382 235.426 382 211C382 186.574 377.189 162.387 367.842 139.821C358.494 117.254 344.794 96.7498 327.522 79.4781C310.25 62.2064 289.746 48.5058 267.179 39.1584C244.613 29.811 220.426 25 196 25" stroke="#065BFF" stroke-width="50"/>
<circle opacity="0.8" cx="196.5" cy="210.5" r="149.5" stroke="white" stroke-width="2"/>
<g opacity="0.2">
<path d="M196 60L196 359" stroke="white"/>
<path d="M196 211L55 258" stroke="white"/>
<path d="M196 211L107.627 90" stroke="white"/>
</g>
<path d="M296.32 208.7H293.68L294 204H300.46V203H293.06L292.58 209.72H296.32C298.4 209.72 299.92 210.94 299.92 212.96C299.92 214.98 298.4 216.2 296.32 216.2C294.6 216.2 293.26 215.38 292.8 213.88L291.9 214.4C292.54 216.24 294.32 217.22 296.32 217.22C298.84 217.22 300.98 215.66 300.98 212.96C300.98 210.26 298.84 208.7 296.32 208.7ZM307.925 217.22C311.285 217.22 313.165 214.32 313.165 210C313.165 205.68 311.285 202.78 307.925 202.78C304.565 202.78 302.685 205.68 302.685 210C302.685 214.32 304.565 217.22 307.925 217.22ZM307.925 216.2C305.325 216.2 303.765 213.92 303.765 210C303.765 206.08 305.325 203.8 307.925 203.8C310.525 203.8 312.085 206.08 312.085 210C312.085 213.92 310.525 216.2 307.925 216.2ZM318.152 208.74C319.952 208.74 321.212 207.42 321.212 205.76C321.212 204.1 319.912 202.78 318.152 202.78C316.392 202.78 315.092 204.1 315.092 205.76C315.092 207.42 316.392 208.74 318.152 208.74ZM318.152 207.82C316.952 207.82 316.092 206.92 316.092 205.76C316.092 204.6 316.952 203.7 318.152 203.7C319.372 203.7 320.232 204.6 320.232 205.76C320.232 206.92 319.372 207.82 318.152 207.82ZM315.852 215.2L316.512 215.58L326.032 204.9L325.352 204.52L315.852 215.2ZM323.812 217.22C325.572 217.22 326.872 215.9 326.872 214.24C326.872 212.58 325.572 211.26 323.812 211.26C322.052 211.26 320.752 212.58 320.752 214.24C320.752 215.9 322.052 217.22 323.812 217.22ZM323.812 216.3C322.612 216.3 321.752 215.4 321.752 214.24C321.752 213.08 322.612 212.18 323.812 212.18C325.032 212.18 325.892 213.08 325.892 214.24C325.892 215.4 325.032 216.3 323.812 216.3Z" fill="white"/>
<path d="M65.86 198H74.66V196.98H67.38L71.72 192.52C73.14 191.08 74.34 189.54 74.34 187.8C74.34 185.2 72.32 183.78 70.18 183.78C68.36 183.78 66.78 184.66 65.94 186.38L66.84 186.92C67.5 185.52 68.66 184.8 70.18 184.8C71.88 184.8 73.26 185.88 73.26 187.8C73.26 189.18 72.22 190.5 71 191.76L65.86 197.04V198ZM81.6516 198.22C85.0116 198.22 86.8916 195.32 86.8916 191C86.8916 186.68 85.0116 183.78 81.6516 183.78C78.2916 183.78 76.4116 186.68 76.4116 191C76.4116 195.32 78.2916 198.22 81.6516 198.22ZM81.6516 197.2C79.0516 197.2 77.4916 194.92 77.4916 191C77.4916 187.08 79.0516 184.8 81.6516 184.8C84.2516 184.8 85.8116 187.08 85.8116 191C85.8116 194.92 84.2516 197.2 81.6516 197.2ZM91.8786 189.74C93.6786 189.74 94.9386 188.42 94.9386 186.76C94.9386 185.1 93.6386 183.78 91.8786 183.78C90.1186 183.78 88.8186 185.1 88.8186 186.76C88.8186 188.42 90.1186 189.74 91.8786 189.74ZM91.8786 188.82C90.6786 188.82 89.8186 187.92 89.8186 186.76C89.8186 185.6 90.6786 184.7 91.8786 184.7C93.0986 184.7 93.9586 185.6 93.9586 186.76C93.9586 187.92 93.0986 188.82 91.8786 188.82ZM89.5786 196.2L90.2386 196.58L99.7586 185.9L99.0786 185.52L89.5786 196.2ZM97.5386 198.22C99.2986 198.22 100.599 196.9 100.599 195.24C100.599 193.58 99.2986 192.26 97.5386 192.26C95.7786 192.26 94.4786 193.58 94.4786 195.24C94.4786 196.9 95.7786 198.22 97.5386 198.22ZM97.5386 197.3C96.3386 197.3 95.4786 196.4 95.4786 195.24C95.4786 194.08 96.3386 193.18 97.5386 193.18C98.7586 193.18 99.6186 194.08 99.6186 195.24C99.6186 196.4 98.7586 197.3 97.5386 197.3Z" fill="white"/>
<path d="M140 94L136.34 95.26L136.6 96.18L139.84 95.16V108H140.9V94H140ZM148.941 108.22C152.301 108.22 154.181 105.32 154.181 101C154.181 96.68 152.301 93.78 148.941 93.78C145.581 93.78 143.701 96.68 143.701 101C143.701 105.32 145.581 108.22 148.941 108.22ZM148.941 107.2C146.341 107.2 144.781 104.92 144.781 101C144.781 97.08 146.341 94.8 148.941 94.8C151.541 94.8 153.101 97.08 153.101 101C153.101 104.92 151.541 107.2 148.941 107.2ZM159.168 99.74C160.968 99.74 162.228 98.42 162.228 96.76C162.228 95.1 160.928 93.78 159.168 93.78C157.408 93.78 156.108 95.1 156.108 96.76C156.108 98.42 157.408 99.74 159.168 99.74ZM159.168 98.82C157.968 98.82 157.108 97.92 157.108 96.76C157.108 95.6 157.968 94.7 159.168 94.7C160.388 94.7 161.248 95.6 161.248 96.76C161.248 97.92 160.388 98.82 159.168 98.82ZM156.868 106.2L157.528 106.58L167.048 95.9L166.368 95.52L156.868 106.2ZM164.828 108.22C166.588 108.22 167.888 106.9 167.888 105.24C167.888 103.58 166.588 102.26 164.828 102.26C163.068 102.26 161.768 103.58 161.768 105.24C161.768 106.9 163.068 108.22 164.828 108.22ZM164.828 107.3C163.628 107.3 162.768 106.4 162.768 105.24C162.768 104.08 163.628 103.18 164.828 103.18C166.048 103.18 166.908 104.08 166.908 105.24C166.908 106.4 166.048 107.3 164.828 107.3Z" fill="white"/>
<path d="M126.86 314H135.66V312.98H128.38L132.72 308.52C134.14 307.08 135.34 305.54 135.34 303.8C135.34 301.2 133.32 299.78 131.18 299.78C129.36 299.78 127.78 300.66 126.94 302.38L127.84 302.92C128.5 301.52 129.66 300.8 131.18 300.8C132.88 300.8 134.26 301.88 134.26 303.8C134.26 305.18 133.22 306.5 132 307.76L126.86 313.04V314ZM142.652 314.22C146.012 314.22 147.892 311.32 147.892 307C147.892 302.68 146.012 299.78 142.652 299.78C139.292 299.78 137.412 302.68 137.412 307C137.412 311.32 139.292 314.22 142.652 314.22ZM142.652 313.2C140.052 313.2 138.492 310.92 138.492 307C138.492 303.08 140.052 300.8 142.652 300.8C145.252 300.8 146.812 303.08 146.812 307C146.812 310.92 145.252 313.2 142.652 313.2ZM152.879 305.74C154.679 305.74 155.939 304.42 155.939 302.76C155.939 301.1 154.639 299.78 152.879 299.78C151.119 299.78 149.819 301.1 149.819 302.76C149.819 304.42 151.119 305.74 152.879 305.74ZM152.879 304.82C151.679 304.82 150.819 303.92 150.819 302.76C150.819 301.6 151.679 300.7 152.879 300.7C154.099 300.7 154.959 301.6 154.959 302.76C154.959 303.92 154.099 304.82 152.879 304.82ZM150.579 312.2L151.239 312.58L160.759 301.9L160.079 301.52L150.579 312.2ZM158.539 314.22C160.299 314.22 161.599 312.9 161.599 311.24C161.599 309.58 160.299 308.26 158.539 308.26C156.779 308.26 155.479 309.58 155.479 311.24C155.479 312.9 156.779 314.22 158.539 314.22ZM158.539 313.3C157.339 313.3 156.479 312.4 156.479 311.24C156.479 310.08 157.339 309.18 158.539 309.18C159.759 309.18 160.619 310.08 160.619 311.24C160.619 312.4 159.759 313.3 158.539 313.3Z" fill="white"/>
</svg>
