<svg width="103" height="106" viewBox="0 0 103 106" fill="none" xmlns="http://www.w3.org/2000/svg">
<path d="M59.8187 48.8053C59.8187 50.0807 59.3423 51.2331 58.5586 52.1244C59.1059 52.7314 59.4944 53.4643 59.6893 54.258C59.8843 55.0517 59.8795 55.8815 59.6756 56.673C59.4716 57.4644 59.0747 58.1932 58.5205 58.7938C57.9663 59.3945 57.2719 59.8484 56.4993 60.1152V63.742H53.1801V60.4225H49.8608V63.742H46.5415V60.4225H43.2222V43.8264H46.5415V40.4915H49.8608V43.8264H53.1801V40.4915H56.4993V44.1182C57.4689 44.461 58.3085 45.0956 58.9029 45.9348C59.4972 46.7741 59.8172 47.7769 59.8187 48.8053ZM56.4993 55.4436C56.4993 54.5215 55.7617 53.7842 54.8397 53.7842H46.5415V57.1033H54.8397C55.7617 57.1033 56.4993 56.3656 56.4993 55.4436ZM56.4993 48.8053C56.4993 47.8832 55.7617 47.1455 54.8397 47.1455H46.5415V50.4647H54.8397C55.7617 50.4647 56.4993 49.7119 56.4993 48.8053ZM36.5684 52.1244C36.5684 55.5666 37.7669 58.9165 39.949 61.575L37.3828 63.6805C34.5895 60.1652 33.1871 55.7453 33.4428 51.2626C33.6985 46.78 35.5944 42.5479 38.7692 39.3731C41.9441 36.1982 46.176 34.3024 50.6586 34.0468C55.1412 33.7911 59.5612 35.1936 63.0765 37.9868L60.9712 40.553C58.7785 38.7723 56.1267 37.6486 53.3222 37.3115C50.5177 36.9744 47.6751 37.4376 45.1228 38.6479C42.5706 39.8581 40.4129 41.7657 38.8991 44.1505C37.3853 46.5353 36.5773 49.2998 36.5684 52.1244ZM65.6581 40.5684C68.4514 44.0836 69.8538 48.5036 69.5981 52.9862C69.3424 57.4688 67.4465 61.7009 64.2717 64.8757C61.0968 68.0506 56.8649 69.9464 52.3823 70.2021C47.8997 70.4577 43.4797 69.0553 39.9644 66.262L42.0697 63.6958C44.9477 65.9677 48.5595 67.104 52.2199 66.8893C55.8802 66.6746 59.3344 65.124 61.9271 62.5313C64.5199 59.9386 66.0706 56.4841 66.2853 52.8237C66.5 49.1634 65.3637 45.5519 63.0919 42.6738L65.6581 40.5684ZM103 50.4647C102.996 52.2241 102.295 53.9102 101.051 55.1543C99.8071 56.3984 98.1208 57.0993 96.3614 57.1033C96.1617 57.1033 95.9773 57.0572 95.7929 57.0418L89.5077 74.8369C90.32 75.4763 90.9117 76.354 91.1996 77.3468C91.4876 78.3396 91.4574 79.3974 91.1132 80.3722C90.7691 81.347 90.1283 82.1896 89.2809 82.7816C88.4335 83.3735 87.4219 83.6853 86.3882 83.673C85.6967 83.673 85.0359 83.5193 84.452 83.2734L72.5118 96.3046C72.8806 96.9961 73.1111 97.7799 73.1111 98.6097C73.3563 99.2939 73.4488 100.024 73.382 100.747C73.3151 101.471 73.0906 102.171 72.7242 102.799C72.3578 103.427 71.8585 103.967 71.2611 104.381C70.6638 104.795 69.9831 105.074 69.2667 105.197C68.5503 105.32 67.8157 105.284 67.1145 105.093C66.4132 104.902 65.7623 104.559 65.2075 104.09C64.6526 103.62 64.2074 103.035 63.903 102.375C63.5985 101.715 63.4423 100.996 63.4453 100.269H49.5534C49.1517 101.36 48.3811 102.276 47.375 102.858C46.3689 103.44 45.1909 103.652 44.0451 103.457C42.8992 103.262 41.8577 102.672 41.1012 101.789C40.3447 100.907 39.9208 99.7873 39.903 98.6251C39.903 97.7799 40.1181 96.9961 40.5023 96.3046L29.7146 84.5336C28.7046 85.063 27.5754 85.3237 26.4354 85.2911C25.2955 85.2585 24.183 84.9334 23.2048 84.3472C22.2267 83.7609 21.4156 82.933 20.8495 81.9431C20.2834 80.9531 19.9811 79.8344 19.9719 78.6941C19.9719 78.4328 20.0181 78.187 20.0488 77.9411L8.78475 73.6229C8.28887 74.1993 7.66722 74.654 6.9677 74.9521C6.26817 75.2502 5.5095 75.3839 4.75024 75.3423C3.99099 75.3007 3.25136 75.0851 2.5886 74.7124C1.92584 74.3396 1.35762 73.8194 0.927714 73.1922C0.497808 72.565 0.217779 71.8476 0.109183 71.095C0.00058766 70.3424 0.0663065 69.575 0.301365 68.8518C0.536423 68.1287 0.934517 67.4691 1.46487 66.9242C1.99521 66.3793 2.64362 65.9636 3.36014 65.709V30.2264C2.68873 29.9956 2.0745 29.6239 1.55856 29.1361C1.04263 28.6484 0.636962 28.0557 0.368802 27.3984C0.100642 26.741 -0.023827 26.0339 0.00376003 25.3244C0.031347 24.615 0.21032 23.9196 0.528719 23.285C0.847118 22.6504 1.29754 22.0913 1.84979 21.6451C2.40204 21.1989 3.0434 20.8762 3.73071 20.6982C4.41803 20.5202 5.13545 20.4909 5.83486 20.613C6.53428 20.7351 7.19945 21.0055 7.78585 21.4057L18.8194 13.1381C18.3946 12.1302 18.2266 11.033 18.3305 9.94424C18.4344 8.85548 18.8069 7.80942 19.4147 6.9001C20.0224 5.99079 20.8463 5.24666 21.8126 4.73424C22.7788 4.22182 23.8572 3.95699 24.9509 3.96401C26.2738 3.9667 27.5657 4.36478 28.6609 5.10678C29.7561 5.84879 30.6047 6.90119 31.0977 8.12879L58.282 4.5943C58.5747 3.42798 59.2783 2.40627 60.2637 1.71711C61.2491 1.02794 62.45 0.71738 63.646 0.842581C64.8419 0.967781 65.9526 1.52049 66.7739 2.39879C67.5952 3.2771 68.072 4.42212 68.1168 5.62377C68.1168 7.11437 67.4561 8.43581 66.4265 9.34247L69.5921 17.2721L69.7919 17.2413C71.6359 17.2413 73.2341 18.2708 74.0946 19.7614L83.1612 18.1174C83.2864 17.3018 83.6122 16.53 84.1095 15.8716C84.6069 15.2132 85.26 14.6884 86.0103 14.345C86.7605 14.0016 87.5844 13.8503 88.4078 13.9042C89.2312 13.9581 90.0282 14.2158 90.7273 14.6541C91.4264 15.0925 92.0056 15.6976 92.4128 16.4152C92.8201 17.1329 93.0425 17.9403 93.0602 18.7653C93.0779 19.5902 92.8904 20.4068 92.5144 21.1412C92.1384 21.8757 91.5858 22.5052 90.9062 22.9732L96.7148 43.8571C100.203 44.0415 103 46.9302 103 50.4647ZM86.4036 18.9161C86.4036 19.3563 86.5784 19.7784 86.8897 20.0896C87.2009 20.4009 87.6231 20.5759 88.0633 20.5759C88.5034 20.5759 88.9256 20.4009 89.2368 20.0896C89.5481 19.7784 89.7229 19.3563 89.7229 18.9161C89.7229 18.4739 89.5473 18.05 89.2346 17.7373C88.9219 17.4246 88.4978 17.2488 88.0556 17.2488C87.6134 17.2488 87.1893 17.4246 86.8766 17.7373C86.5639 18.05 86.3882 18.4739 86.3882 18.9161H86.4036ZM74.2022 24.4945L93.1804 44.6713L93.4417 44.5178L87.7098 23.8492C86.9004 23.7945 86.1169 23.5415 85.4282 23.1128C84.7395 22.684 84.1667 22.0925 83.7604 21.3904L74.694 23.0347C74.6017 23.5572 74.4327 24.0335 74.2022 24.4945ZM71.7896 26.7842C70.8247 27.2141 69.747 27.3218 68.7162 27.0915L65.7964 31.7477C68.728 33.7947 71.1842 36.449 72.998 39.5303C74.8118 42.6116 75.9405 46.0478 76.3075 49.6044L89.8766 49.0664C90.0303 48.298 90.3376 47.576 90.7525 46.9305L71.7896 26.7842ZM51.5204 30.5337C39.611 30.5337 29.9298 40.215 29.9298 52.1244C29.9298 64.0185 39.611 73.7152 51.5204 73.7152C63.4299 73.7152 73.1111 64.0339 73.1111 52.1244C73.1111 40.215 63.4299 30.5337 51.5204 30.5337ZM68.1168 22.2356C68.1168 22.6778 68.2925 23.1017 68.6052 23.4144C68.9179 23.7271 69.342 23.9029 69.7842 23.9029C70.2264 23.9029 70.6505 23.7271 70.9632 23.4144C71.2758 23.1017 71.4514 22.6778 71.4514 22.2356C71.4514 21.7955 71.2766 21.3733 70.9654 21.0621C70.6542 20.7508 70.232 20.5759 69.7919 20.5759C69.3517 20.5759 68.9296 20.7508 68.6183 21.0621C68.3071 21.3733 68.1322 21.7955 68.1322 22.2356H68.1168ZM61.4782 5.62377C61.4782 6.06597 61.6539 6.49025 61.9666 6.80293C62.2793 7.11562 62.7034 7.29103 63.1456 7.29103C63.5878 7.29103 64.0119 7.11562 64.3246 6.80293C64.6373 6.49025 64.813 6.06597 64.813 5.62377C64.813 5.18157 64.6373 4.75766 64.3246 4.44498C64.0119 4.13229 63.5878 3.9565 63.1456 3.9565C62.7034 3.9565 62.2793 4.13229 61.9666 4.44498C61.6539 4.75766 61.4782 5.18157 61.4782 5.62377ZM29.8068 15.1051L39.5342 30.3033C43.1132 28.3238 47.127 27.2624 51.2167 27.2141C55.3063 27.1659 59.3442 28.1323 62.9689 30.0268L65.8886 25.309C65.0966 24.3156 64.7185 23.0548 64.833 21.7895C64.9475 20.5242 65.5459 19.3517 66.5033 18.5165L63.3377 10.5873L63.1379 10.6027C62.2236 10.5995 61.3278 10.3439 60.5496 9.86396C59.7714 9.384 59.1409 8.69828 58.7276 7.88268L31.5125 11.4172C31.3455 12.7952 30.7487 14.0854 29.8068 15.1051ZM27.01 16.8879C26.6003 17.022 26.1781 17.1145 25.7499 17.1644L23.9059 31.1024C24.8379 31.5852 25.5927 32.3509 26.0621 33.2897C26.5314 34.2284 26.6912 35.2918 26.5183 36.3271L30.6213 38.6167C32.2593 36.1002 34.3361 33.8985 36.7528 32.1165L27.01 16.8879ZM21.6316 10.6027C21.6316 11.483 21.9813 12.3273 22.6038 12.9497C23.2263 13.5722 24.0706 13.9218 24.9509 13.9218C25.8312 13.9218 26.6755 13.5722 27.298 12.9497C27.9204 12.3273 28.2701 11.483 28.2701 10.6027C28.2701 9.72234 27.9204 8.87808 27.298 8.2556C26.6755 7.63311 25.8312 7.28353 24.9509 7.28353C24.0706 7.28353 23.2263 7.63311 22.6038 8.2556C21.9813 8.87808 21.6316 9.72234 21.6316 10.6027ZM21.6316 33.8532C21.1914 33.8532 20.7693 34.0278 20.458 34.339C20.1468 34.6503 19.9719 35.0724 19.9719 35.5126C19.9719 35.9527 20.1468 36.3749 20.458 36.6861C20.7693 36.9973 21.1914 37.1723 21.6316 37.1723C22.0717 37.1723 22.4939 36.9973 22.8051 36.6861C23.1163 36.3749 23.2912 35.9527 23.2912 35.5126C23.2912 35.0724 23.1163 34.6503 22.8051 34.339C22.4939 34.0278 22.0717 33.8532 21.6316 33.8532ZM9.75288 24.0796C10.0132 24.8726 10.0661 25.7192 9.90651 26.5385L18.4813 31.6862C19.096 31.1944 19.8029 30.8104 20.602 30.6413L22.4461 16.7495C21.8642 16.5001 21.3209 16.1691 20.8325 15.7662L9.75288 24.0796ZM3.36014 25.5548C3.36014 25.7727 3.40307 25.9886 3.48648 26.1899C3.56988 26.3913 3.69216 26.5742 3.84627 26.7283C4.00038 26.8824 4.18338 27.0047 4.38473 27.0881C4.58609 27.1715 4.80186 27.2145 5.0198 27.2145C5.23775 27.2145 5.45361 27.1715 5.65497 27.0881C5.85633 27.0047 6.03923 26.8824 6.19334 26.7283C6.34745 26.5742 6.46973 26.3913 6.55313 26.1899C6.63654 25.9886 6.67947 25.7727 6.67947 25.5548C6.67947 25.1146 6.50458 24.6925 6.19334 24.3812C5.8821 24.07 5.45997 23.895 5.0198 23.895C4.57964 23.895 4.15751 24.07 3.84627 24.3812C3.53502 24.6925 3.36014 25.1146 3.36014 25.5548ZM6.67947 70.3956C6.67947 70.1777 6.63654 69.9622 6.55313 69.7609C6.46973 69.5595 6.34745 69.3762 6.19334 69.2221C6.03923 69.068 5.85633 68.9457 5.65497 68.8623C5.45361 68.7789 5.23775 68.7363 5.0198 68.7363C4.80186 68.7363 4.58609 68.7789 4.38473 68.8623C4.18338 68.9457 4.00038 69.068 3.84627 69.2221C3.69216 69.3762 3.56988 69.5595 3.48648 69.7609C3.40307 69.9622 3.36014 70.1777 3.36014 70.3956C3.36014 70.8358 3.53502 71.2579 3.84627 71.5692C4.15751 71.8804 4.57964 72.0554 5.0198 72.0554C5.45997 72.0554 5.8821 71.8804 6.19334 71.5692C6.50458 71.2579 6.67947 70.8358 6.67947 70.3956ZM6.67947 63.0352L18.1125 39.0471C17.5274 38.4667 17.096 37.7498 16.8572 36.9611C16.6184 36.1724 16.5799 35.3366 16.7449 34.5292L8.17003 29.3811C7.72438 29.7499 7.23268 30.0266 6.67947 30.2264V63.0352ZM26.6105 72.0554C27.763 72.0554 28.8387 72.3628 29.7761 72.8853L33.3412 69.0897C29.9344 65.4608 27.6991 60.8904 26.9262 55.9733C26.1532 51.0562 26.8785 46.0204 29.0077 41.5213L24.9047 39.2316C24.0288 40 22.8917 40.4915 21.6316 40.4915C21.4472 40.4915 21.2935 40.4607 21.1244 40.4453L8.53891 66.8769C9.44557 67.7682 9.99871 69.028 9.99871 70.3956V70.5187L21.2167 74.8369C21.829 73.977 22.638 73.2757 23.5763 72.7919C24.5145 72.308 25.5548 72.0556 26.6105 72.0554ZM29.9298 78.6941C29.9298 77.8117 29.5792 76.9653 28.9553 76.3414C28.3314 75.7174 27.4851 75.367 26.6028 75.367C25.7204 75.367 24.8742 75.7174 24.2503 76.3414C23.6263 76.9653 23.2758 77.8117 23.2758 78.6941C23.2758 79.5764 23.6263 80.4225 24.2503 81.0464C24.8742 81.6703 25.7204 82.0211 26.6028 82.0211C27.4851 82.0211 28.3314 81.6703 28.9553 81.0464C29.5792 80.4225 29.9298 79.5764 29.9298 78.6941ZM46.5262 98.6251C46.5484 98.3947 46.5222 98.1622 46.4493 97.9426C46.3764 97.723 46.2584 97.5212 46.1029 97.3498C45.9473 97.1785 45.7576 97.0417 45.546 96.948C45.3344 96.8544 45.1056 96.8058 44.8742 96.8058C44.6428 96.8058 44.4139 96.8544 44.2024 96.948C43.9908 97.0417 43.8012 97.1785 43.6456 97.3498C43.49 97.5212 43.372 97.723 43.2991 97.9426C43.2262 98.1622 43.2 98.3947 43.2222 98.6251C43.2222 99.0652 43.3971 99.4874 43.7083 99.7986C44.0196 100.11 44.4417 100.285 44.8819 100.285C45.322 100.285 45.7442 100.11 46.0554 99.7986C46.3667 99.4874 46.5415 99.0652 46.5415 98.6251H46.5262ZM64.6286 95.0906L58.0668 76.1279C54.2359 77.1842 50.2071 77.3026 46.3208 76.4734C42.4344 75.6443 38.8047 73.8918 35.7385 71.364L32.2041 75.1442C32.8895 76.2139 33.2513 77.4589 33.2458 78.7293C33.2404 79.9998 32.8679 81.2413 32.1733 82.3051L42.9302 94.0303C43.5534 93.7652 44.2244 93.631 44.9016 93.6357C45.5788 93.6403 46.2478 93.784 46.8672 94.0577C47.4866 94.3314 48.0433 94.7292 48.5028 95.2268C48.9622 95.7243 49.3146 96.3107 49.5381 96.9499H63.4453C63.7065 96.243 64.1061 95.5977 64.6286 95.0752V95.0906ZM69.7919 98.6251C69.7919 98.4071 69.7489 98.1912 69.6655 97.9899C69.5821 97.7885 69.4598 97.6056 69.3057 97.4515C69.1516 97.2974 68.9687 97.1751 68.7674 97.0917C68.566 97.0083 68.3501 96.9653 68.1322 96.9653C67.9143 96.9653 67.6985 97.0083 67.4971 97.0917C67.2958 97.1751 67.1128 97.2974 66.9587 97.4515C66.8046 97.6056 66.6823 97.7885 66.5989 97.9899C66.5155 98.1912 66.4725 98.4071 66.4725 98.6251C66.4725 99.0652 66.6474 99.4874 66.9587 99.7986C67.2699 100.11 67.692 100.285 68.1322 100.285C68.5724 100.285 68.9945 100.11 69.3057 99.7986C69.617 99.4874 69.7919 99.0652 69.7919 98.6251ZM82.0087 81.0145C81.6206 80.3023 81.4147 79.5051 81.4093 78.6941C81.4093 78.1101 81.5323 77.5568 81.7167 77.0343L70.637 68.0752C68.0948 71.1187 64.8662 73.5152 61.217 75.0673L67.6712 93.6923C67.8249 93.6769 67.9785 93.6308 68.1322 93.6308C68.8237 93.6308 69.4845 93.7845 70.0838 94.0303L82.0087 81.0145ZM88.0479 78.6941C88.0479 78.4761 88.005 78.2603 87.9216 78.0589C87.8382 77.8575 87.7159 77.6746 87.5618 77.5205C87.4077 77.3664 87.2247 77.2441 87.0233 77.1607C86.822 77.0773 86.6062 77.0343 86.3882 77.0343C86.1703 77.0343 85.9544 77.0773 85.7531 77.1607C85.5517 77.2441 85.3688 77.3664 85.2147 77.5205C85.0606 77.6746 84.9383 77.8575 84.8549 78.0589C84.7715 78.2603 84.7286 78.4761 84.7286 78.6941C84.7286 79.1342 84.9035 79.5564 85.2147 79.8676C85.5259 80.1788 85.9481 80.3538 86.3882 80.3538C86.8284 80.3538 87.2505 80.1788 87.5618 79.8676C87.873 79.5564 88.0479 79.1342 88.0479 78.6941ZM92.658 55.9662C91.395 55.105 90.4671 53.835 90.0302 52.3702L76.3843 52.9235C76.2478 57.3384 74.932 61.6365 72.5733 65.371L83.7912 74.4528C84.5711 73.9694 85.4707 73.7139 86.3882 73.7152L92.658 55.9662ZM99.6808 50.4647C99.6808 49.5823 99.3302 48.7363 98.7063 48.1123C98.0823 47.4884 97.2361 47.1376 96.3537 47.1376C95.4714 47.1376 94.6251 47.4884 94.0012 48.1123C93.3773 48.7363 93.0268 49.5823 93.0268 50.4647C93.0268 51.347 93.3773 52.1934 94.0012 52.8174C94.6251 53.4413 95.4714 53.7917 96.3537 53.7917C97.2361 53.7917 98.0823 53.4413 98.7063 52.8174C99.3302 52.1934 99.6808 51.347 99.6808 50.4647Z" fill="#16BF86"/>
</svg>
