<svg width="98" height="98" viewBox="0 0 98 98" fill="none" xmlns="http://www.w3.org/2000/svg">
<path d="M48.7533 24.8798C61.8824 24.8798 72.5669 35.6724 72.5669 48.9324C72.5669 62.1924 61.8824 72.9851 48.7533 72.9851C42.4203 72.9559 36.3572 70.4078 31.8933 65.899C27.4293 61.3902 24.9288 55.2887 24.9398 48.9324C24.9398 35.6724 35.6243 24.8798 48.7533 24.8798ZM48.7533 28.0912C43.2654 28.1167 38.0112 30.3248 34.1422 34.2313C30.2732 38.1378 28.1048 43.4242 28.1121 48.9324C28.1048 54.4406 30.2732 59.7271 34.1422 63.6336C38.0112 67.54 43.2654 69.7481 48.7533 69.7737C54.2413 69.7481 59.4954 67.54 63.3644 63.6336C67.2335 59.7271 69.4019 54.4406 69.3946 48.9324C69.4019 43.4242 67.2335 38.1378 63.3644 34.2313C59.4954 30.3248 54.2413 28.1167 48.7533 28.0912ZM47.1602 37.7126V40.9102H50.3464V37.7126H53.505V41.2134C54.2443 41.4766 54.9077 41.9185 55.4366 42.4999C55.9655 43.0813 56.3436 43.7844 56.5377 44.5473C56.7318 45.3101 56.7358 46.1092 56.5494 46.8739C56.363 47.6387 55.992 48.3457 55.469 48.9324C55.9889 49.5196 56.3578 50.2257 56.5432 50.9889C56.7286 51.7521 56.7249 52.5494 56.5325 53.3109C56.3401 54.0723 55.9648 54.7749 55.4394 55.3572C54.9141 55.9396 54.2547 56.384 53.5188 56.6515V60.1523H50.3464V56.9547H47.1602V60.1523H44.0017V56.9547H40.8154V40.9102H43.9879V37.7126H47.1602ZM53.5188 52.1442C53.5188 51.2482 52.8047 50.5312 51.9258 50.5312H43.9879V53.743H51.9258C52.8047 53.743 53.5188 53.0263 53.5188 52.1442ZM43.9879 44.1219V47.3198H51.9258C52.3483 47.3198 52.7535 47.1513 53.0522 46.8514C53.351 46.5515 53.5188 46.1448 53.5188 45.7207C53.5188 45.2966 53.351 44.8902 53.0522 44.5903C52.7535 44.2905 52.3483 44.1219 51.9258 44.1219H43.9879ZM48.7533 31.3029C52.7848 31.304 56.6915 32.707 59.8087 35.2728L57.7898 37.7536C55.6942 36.028 53.1523 34.9372 50.4614 34.6089C47.7706 34.2805 45.0423 34.7284 42.5958 35.8998C40.1493 37.0711 38.0857 38.9175 36.6468 41.2231C35.2079 43.5288 34.453 46.1981 34.4706 48.9186C34.4706 52.2543 35.6105 55.4937 37.6842 58.0575L35.226 60.0974C32.6765 56.939 31.2851 52.9974 31.2846 48.9324C31.2846 39.2011 39.1125 31.2891 48.7533 31.2891V31.3029ZM63.036 48.9324C63.036 45.6243 61.8962 42.3712 59.8225 39.8074L62.2806 37.7674C64.8301 40.9259 66.2216 44.8675 66.2221 48.9324C66.2221 58.65 58.3941 66.5757 48.7533 66.5757C44.7185 66.5669 40.8114 65.154 37.6979 62.5782L39.7169 60.0974C41.8107 61.8289 44.3534 62.9246 47.0462 63.256C49.7391 63.5874 52.4702 63.1409 54.9189 61.9685C57.3676 60.7961 59.4321 58.9465 60.8699 56.6373C62.3077 54.3282 63.0592 51.6553 63.036 48.9324ZM27.7688 19.9313L48.7533 15.2174L78.9254 21.9851V55.3418H75.7394V24.5628L48.7533 18.4977L28.4554 23.0602L27.7688 19.9313ZM9.06397 24.8936H12.2364V28.0912H9.06397V24.8936ZM88.4427 76.183V81.0073H95.1171L80.5048 97.8649L65.8925 80.9935H72.5669V72.5304C70.8365 74.3223 68.859 75.8385 66.6342 76.9688L48.7533 85.9969L30.8725 76.9688C27.1636 75.1059 24.0473 72.2393 21.8754 68.6931C19.7035 65.1469 18.5626 61.0621 18.5812 56.8995V39.973L2.23854 56.4721L0 54.2117L21.7673 32.2263V13.6596H24.6102L17.0019 4.86572L9.37981 13.6596H12.2364V21.6681H9.06397V16.8575H2.38959L17.0019 0L31.6142 16.8575H24.9398V33.5636L21.7673 36.7612V56.8857C21.7673 64.2325 25.8049 70.8073 32.2871 74.1016L48.7533 82.4133L65.2196 74.1016C68.2026 72.5847 70.7362 70.3079 72.5669 67.4991V64.3012L95.2681 41.3789L97.5067 43.6531L75.7394 65.6247V84.2053H72.8965L80.5048 92.9991L88.1269 84.2053H85.2702V76.183H88.4427ZM85.2702 69.7737H88.4427V72.9851H85.2702V69.7737Z" fill="#16BF86"/>
</svg>
