<svg width="102" height="102" viewBox="0 0 102 102" fill="none" xmlns="http://www.w3.org/2000/svg">
<path d="M55.9355 52.6452H34.5484V73.2261C34.5484 78.4084 32.9526 83.3603 29.942 87.5719L26.3226 92.6556V102H23.0323V91.6025L27.2767 85.6637C29.8751 82.0378 31.2678 77.6868 31.2581 73.2261V51C31.2581 50.1273 30.9114 49.2903 30.2943 48.6732C29.6773 48.0562 28.8404 47.7097 27.9677 47.7097C27.0951 47.7097 26.2582 48.0562 25.6411 48.6732C25.0241 49.2903 24.6774 50.1273 24.6774 51V60.6733C24.684 61.9974 24.428 63.3099 23.9243 64.5344C23.4207 65.7589 22.6793 66.8712 21.7431 67.8075C20.8068 68.7437 19.6943 69.4852 18.4698 69.9888C17.2452 70.4925 15.9331 70.7485 14.609 70.7419H11.5161V67.4516H14.609C15.8143 67.447 16.9963 67.1196 18.0321 66.5033C19.0678 65.887 19.9196 65.0046 20.4987 63.9476L17.2084 60.6573C16.4448 59.8955 15.8394 58.9902 15.4272 57.9935C15.015 56.9968 14.804 55.9284 14.8064 54.8498V51H14.8558C13.8242 50.2399 12.9848 49.2488 12.4049 48.1061C11.825 46.9634 11.5206 45.7008 11.5161 44.4193V30.1889C11.1706 30.5673 10.8581 30.9786 10.5948 31.4392L6.31741 39.3192C4.33942 42.9427 3.29884 47.0035 3.29032 51.1317V73.0121C3.29032 76.763 3.94837 80.4484 5.28095 83.9691L8.22581 91.833V102H4.93548V92.425L2.20451 85.1206C0.746521 81.2445 -0.000269743 77.1373 7.30875e-08 72.996V51.1153C7.30875e-08 46.4595 1.18449 41.8363 3.42191 37.7399L7.69934 29.8595C8.59471 28.255 9.91544 26.9288 11.5161 26.0266V8.22581C11.5161 6.04419 12.3828 3.95174 13.9254 2.4091C15.4681 0.866463 17.5603 0 19.7419 0H27.9677V44.4193C29.423 44.4241 30.8356 44.9112 31.9846 45.8042C33.1337 46.6973 33.9542 47.9458 34.318 49.3548H55.9355V52.6452ZM21.3871 52.6452H19.7419C19.1826 52.6452 18.6232 52.5792 18.0968 52.4805V54.8498C18.0968 56.1659 18.6232 57.4325 19.5445 58.3373L21.3871 60.1801V52.6452ZM24.6774 3.29032H19.7419C18.433 3.29032 17.1776 3.81028 16.252 4.73586C15.3265 5.66145 14.8064 6.91683 14.8064 8.22581V44.4193C14.8064 45.7283 15.3265 46.9837 16.252 47.9093C17.1776 48.8349 18.433 49.3548 19.7419 49.3548H21.6174C21.8363 48.5143 22.2193 47.7255 22.7445 47.0337C23.2697 46.3419 23.9266 45.7609 24.6774 45.3243V3.29032ZM102 8.22581V44.4193C102 46.601 101.133 48.6934 99.5907 50.2361C98.048 51.7787 95.9558 52.6452 93.7742 52.6452V49.3548C95.0832 49.3548 96.3385 48.8349 97.2641 47.9093C98.1897 46.9837 98.7097 45.7283 98.7097 44.4193V8.22581C98.7097 6.91683 98.1897 5.66145 97.2641 4.73586C96.3385 3.81028 95.0832 3.29032 93.7742 3.29032H92.129V47.7097H88.8387V3.29032H31.2581V0H93.7742C95.9558 0 98.048 0.866463 99.5907 2.4091C101.133 3.95174 102 6.04419 102 8.22581ZM18.0968 19.7419H21.3871V32.9032H18.0968V19.7419ZM100.059 57.8108C100.675 58.4158 101.164 59.138 101.498 59.9347C101.831 60.7314 102.002 61.5866 102 62.4502V83.3931C102 87.3415 100.454 91.0597 97.6567 93.8565L92.129 99.384V102H88.8387V98.0188L95.3371 91.5201C96.4081 90.4553 97.2576 89.1889 97.8365 87.794C98.4153 86.3991 98.7121 84.9034 98.7097 83.3931V62.4502C98.712 62.022 98.6284 61.5978 98.4641 61.2023C98.2998 60.8068 98.0579 60.4481 97.7528 60.1476C97.4477 59.8471 97.0854 59.6106 96.6875 59.4523C96.2896 59.294 95.864 59.217 95.4358 59.2258C94.5571 59.2387 93.7186 59.5958 93.1003 60.2203C92.482 60.8447 92.1332 61.6868 92.129 62.5655V72.3871H88.8387V55.9355C88.8387 55.0628 88.492 54.2258 87.875 53.6087C87.2579 52.9917 86.421 52.6452 85.5484 52.6452C84.6757 52.6452 83.8388 52.9917 83.2218 53.6087C82.6047 54.2258 82.258 55.0628 82.258 55.9355V72.3871H78.9677V52.6452C78.9677 51.7725 78.6211 50.9354 78.004 50.3184C77.387 49.7013 76.5501 49.3548 75.6774 49.3548C74.8048 49.3548 73.9678 49.7013 73.3508 50.3184C72.7337 50.9354 72.3871 51.7725 72.3871 52.6452V72.3871H69.0968V32.9032C69.0968 32.0306 68.7501 31.1935 68.1331 30.5765C67.516 29.9594 66.6791 29.6129 65.8064 29.6129C64.9338 29.6129 64.0969 29.9594 63.4798 30.5765C62.8628 31.1935 62.5161 32.0306 62.5161 32.9032V72.3871H59.2258V59.2258H59.1106C57.3972 59.2301 55.7552 59.9128 54.5437 61.1244C53.3321 62.336 52.6495 63.9777 52.6452 65.6912V83.3931C52.6452 86.4696 53.8461 89.3485 56.0177 91.5201L62.5161 98.0188V102H59.2258V99.384L53.6816 93.8565C52.3042 92.4854 51.2124 90.8545 50.4697 89.0584C49.727 87.2623 49.3481 85.3367 49.3548 83.3931V65.6912C49.3592 63.1051 50.3884 60.6263 52.217 58.7976C54.0457 56.969 56.5246 55.9398 59.1106 55.9355H59.2258V32.9032C59.2258 31.1579 59.9191 29.4842 61.1532 28.2501C62.3873 27.016 64.0611 26.3226 65.8064 26.3226C67.5517 26.3226 69.2256 27.016 70.4597 28.2501C71.6938 29.4842 72.3871 31.1579 72.3871 32.9032V46.9694C73.2213 46.478 74.1547 46.1788 75.1191 46.0934C76.0836 46.008 77.0549 46.1386 77.9625 46.4758C78.8702 46.813 79.6912 47.3482 80.366 48.0426C81.0407 48.737 81.5522 49.573 81.8632 50.4899C82.8525 49.8212 84.0051 49.4346 85.1975 49.3709C86.3899 49.3072 87.5772 49.5688 88.6321 50.1284C89.687 50.688 90.5697 51.5242 91.1857 52.5471C91.8018 53.5701 92.1278 54.7414 92.129 55.9355V56.8733C93.3675 56.1277 94.8188 55.8151 96.2544 55.9849C97.69 56.1546 99.0283 56.7969 100.059 57.8108ZM57.5806 23.0323C57.5806 24.299 57.1036 25.4506 56.3139 26.3226C56.8516 26.9244 57.233 27.6492 57.4243 28.4333C57.6157 29.2173 57.6112 30.0367 57.4113 30.8187C57.2113 31.6006 56.8221 32.3213 56.2778 32.9173C55.7335 33.5132 55.0509 33.966 54.2903 34.2359V37.8387H51V34.5484H47.7097V37.8387H44.4193V34.5484H41.129V18.0968H44.4193V14.8064H47.7097V18.0968H51V14.8064H54.2903V18.3928C55.2503 18.7322 56.0819 19.3604 56.6709 20.191C57.26 21.0216 57.5778 22.014 57.5806 23.0323ZM54.2903 29.6129C54.2903 29.1766 54.117 28.7582 53.8084 28.4497C53.4999 28.1412 53.0815 27.9677 52.6452 27.9677H44.4193V31.2581H52.6452C53.0815 31.2581 53.4999 31.0846 53.8084 30.7761C54.117 30.4676 54.2903 30.0492 54.2903 29.6129ZM54.2903 23.0323C54.2903 22.5959 54.117 22.1776 53.8084 21.8691C53.4999 21.5605 53.0815 21.3871 52.6452 21.3871H44.4193V24.6774H52.6452C53.0815 24.6774 53.4999 24.504 53.8084 24.1954C54.117 23.8869 54.2903 23.4686 54.2903 23.0323ZM49.3548 11.5161C47.1452 11.5053 44.9611 11.9887 42.9623 12.9307C40.9635 13.8728 39.2007 15.2497 37.8027 16.9609C36.4047 18.6721 35.407 20.6745 34.8826 22.821C34.3582 24.9675 34.3203 27.204 34.7717 29.3671C35.2231 31.5301 36.1525 33.5648 37.4917 35.3224C38.8309 37.08 40.546 38.516 42.5118 39.5252C44.4775 40.5345 46.644 41.0915 48.8527 41.1555C51.0615 41.2195 53.2566 40.7889 55.2774 39.8952L56.5935 42.9059C53.8395 44.1034 50.8309 44.5971 47.8386 44.343C44.8463 44.0889 41.9641 43.0946 39.4514 41.4499C36.9387 39.8053 34.8744 37.5618 33.4441 34.9211C32.0139 32.2805 31.2627 29.3257 31.2581 26.3226C31.2924 21.858 32.9745 17.5633 35.9814 14.263C38.9883 10.9627 43.1082 8.88939 47.5504 8.44069C51.9925 7.99199 56.4438 9.19949 60.05 11.8318C63.6562 14.4642 66.1632 18.3358 67.0897 22.7033L63.8652 23.3612C63.1768 20.0197 61.358 17.0174 58.715 14.8599C56.0721 12.7024 52.7665 11.5216 49.3548 11.5161ZM75.6774 13.1613C75.6774 11.8523 76.1974 10.5969 77.123 9.67135C78.0486 8.74576 79.3039 8.22581 80.6129 8.22581C81.9219 8.22581 83.1772 8.74576 84.1028 9.67135C85.0284 10.5969 85.5484 11.8523 85.5484 13.1613C85.5484 14.4703 85.0284 15.7256 84.1028 16.6512C83.1772 17.5768 81.9219 18.0968 80.6129 18.0968C79.3039 18.0968 78.0486 17.5768 77.123 16.6512C76.1974 15.7256 75.6774 14.4703 75.6774 13.1613ZM78.9677 13.1613C78.9677 13.5976 79.1411 14.0159 79.4496 14.3245C79.7581 14.633 80.1766 14.8064 80.6129 14.8064C81.0492 14.8064 81.4676 14.633 81.7762 14.3245C82.0847 14.0159 82.258 13.5976 82.258 13.1613C82.258 12.725 82.0847 12.3066 81.7762 11.9981C81.4676 11.6896 81.0492 11.5161 80.6129 11.5161C80.1766 11.5161 79.7581 11.6896 79.4496 11.9981C79.1411 12.3066 78.9677 12.725 78.9677 13.1613ZM75.6774 26.3226C75.6774 25.0136 76.1974 23.7582 77.123 22.8326C78.0486 21.9071 79.3039 21.3871 80.6129 21.3871C81.9219 21.3871 83.1772 21.9071 84.1028 22.8326C85.0284 23.7582 85.5484 25.0136 85.5484 26.3226C85.5484 27.6315 85.0284 28.8869 84.1028 29.8125C83.1772 30.7381 81.9219 31.2581 80.6129 31.2581C79.3039 31.2581 78.0486 30.7381 77.123 29.8125C76.1974 28.8869 75.6774 27.6315 75.6774 26.3226ZM78.9677 26.3226C78.9677 26.7589 79.1411 27.1772 79.4496 27.4858C79.7581 27.7943 80.1766 27.9677 80.6129 27.9677C81.0492 27.9677 81.4676 27.7943 81.7762 27.4858C82.0847 27.1772 82.258 26.7589 82.258 26.3226C82.258 25.8863 82.0847 25.4679 81.7762 25.1594C81.4676 24.8509 81.0492 24.6774 80.6129 24.6774C80.1766 24.6774 79.7581 24.8509 79.4496 25.1594C79.1411 25.4679 78.9677 25.8863 78.9677 26.3226ZM75.6774 39.4839C75.6774 38.1749 76.1974 36.9195 77.123 35.9939C78.0486 35.0683 79.3039 34.5484 80.6129 34.5484C81.9219 34.5484 83.1772 35.0683 84.1028 35.9939C85.0284 36.9195 85.5484 38.1749 85.5484 39.4839C85.5484 40.7928 85.0284 42.0482 84.1028 42.9738C83.1772 43.8994 81.9219 44.4193 80.6129 44.4193C79.3039 44.4193 78.0486 43.8994 77.123 42.9738C76.1974 42.0482 75.6774 40.7928 75.6774 39.4839ZM78.9677 39.4839C78.9677 39.9202 79.1411 40.3385 79.4496 40.647C79.7581 40.9556 80.1766 41.129 80.6129 41.129C81.0492 41.129 81.4676 40.9556 81.7762 40.647C82.0847 40.3385 82.258 39.9202 82.258 39.4839C82.258 39.0475 82.0847 38.6292 81.7762 38.3207C81.4676 38.0122 81.0492 37.8387 80.6129 37.8387C80.1766 37.8387 79.7581 38.0122 79.4496 38.3207C79.1411 38.6292 78.9677 39.0475 78.9677 39.4839Z" fill="#16BF86"/>
</svg>
