<svg width="61" height="61" viewBox="0 0 61 61" fill="none" xmlns="http://www.w3.org/2000/svg">
<path d="M30.6214 45.9748C22.1272 45.9748 15.2174 39.065 15.2174 30.5709C15.2174 22.0767 22.1272 15.1669 30.6214 15.1669C39.1155 15.1669 46.0253 22.0767 46.0253 30.5709C46.0253 39.065 39.1155 45.9748 30.6214 45.9748ZM30.6214 17.3675C23.3375 17.3675 17.418 23.287 17.418 30.5709C17.418 37.8547 23.3375 43.7743 30.6214 43.7743C37.9052 43.7743 43.8247 37.8547 43.8247 30.5709C43.8247 23.287 37.9052 17.3675 30.6214 17.3675ZM34.1643 60.2785H27.0784C26.2672 60.2785 25.4892 59.9562 24.9156 59.3826C24.3419 58.809 24.0197 58.0309 24.0197 57.2197V54.9971C21.9179 54.4318 19.8985 53.5959 18.0121 52.5104L16.4497 54.084C15.8662 54.6422 15.0897 54.9535 14.2822 54.9535C13.4746 54.9535 12.6982 54.6422 12.1146 54.084L7.10835 49.0667C6.82192 48.7842 6.59448 48.4474 6.43924 48.0763C6.284 47.7051 6.20406 47.3068 6.20406 46.9045C6.20406 46.5022 6.284 46.1039 6.43924 45.7328C6.59448 45.3616 6.82192 45.0249 7.10835 44.7424L8.68174 43.1801C7.59655 41.2935 6.76069 39.2742 6.19509 37.1726H3.97254C3.1613 37.1726 2.38328 36.8503 1.80965 36.2767C1.23602 35.7031 0.913757 34.925 0.913757 34.1137V27.028C0.913757 26.2168 1.23602 25.4387 1.80965 24.865C2.38328 24.2914 3.1613 23.9692 3.97254 23.9692H6.19509C6.75998 21.8673 7.59588 19.8479 8.68174 17.9617L7.10835 16.3994C6.82025 16.1167 6.5914 15.7793 6.43518 15.4071C6.27895 15.0349 6.19845 14.6352 6.19845 14.2316C6.19845 13.828 6.27895 13.4285 6.43518 13.0564C6.5914 12.6842 6.82025 12.3468 7.10835 12.0641L12.1146 7.05774C12.6982 6.49953 13.4746 6.1882 14.2822 6.1882C15.0897 6.1882 15.8662 6.49953 16.4497 7.05774L18.0121 8.63133C19.8989 7.54648 21.9182 6.71063 24.0197 6.14468V3.9221C24.0197 3.11086 24.3419 2.33277 24.9156 1.75914C25.4892 1.18551 26.2672 0.863281 27.0784 0.863281H34.1643C34.9755 0.863281 35.7535 1.18551 36.3271 1.75914C36.9008 2.33277 37.223 3.11086 37.223 3.9221V6.14468C39.3245 6.71063 41.3438 7.54648 43.2306 8.63133L44.793 7.05774C45.3765 6.49953 46.153 6.1882 46.9605 6.1882C47.7681 6.1882 48.5445 6.49953 49.1281 7.05774L54.1344 12.0641C54.4225 12.3468 54.6513 12.6842 54.8075 13.0564C54.9638 13.4285 55.0443 13.828 55.0443 14.2316C55.0443 14.6352 54.9638 15.0349 54.8075 15.4071C54.6513 15.7793 54.4225 16.1167 54.1344 16.3994L52.561 17.9617C53.6469 19.8479 54.4828 21.8673 55.0476 23.9692H57.2702C58.0814 23.9692 58.8594 24.2914 59.4331 24.865C60.0067 25.4387 60.3289 26.2168 60.3289 27.028V34.1137C60.3289 34.925 60.0067 35.7031 59.4331 36.2767C58.8594 36.8503 58.0814 37.1726 57.2702 37.1726H55.0476C54.482 39.2742 53.6461 41.2935 52.561 43.1801L54.1344 44.7424C54.4195 45.0256 54.6457 45.3625 54.8001 45.7336C54.9545 46.1046 55.034 46.5026 55.034 46.9045C55.034 47.3064 54.9545 47.7044 54.8001 48.0754C54.6457 48.4465 54.4195 48.7834 54.1344 49.0667L49.1281 54.084C48.5445 54.6422 47.7681 54.9535 46.9605 54.9535C46.153 54.9535 45.3765 54.6422 44.793 54.084L43.2306 52.5104C41.3442 53.5959 39.3248 54.4318 37.223 54.9971V57.2197C37.223 58.0309 36.9008 58.809 36.3271 59.3826C35.7535 59.9562 34.9755 60.2785 34.1643 60.2785ZM17.682 49.7267L18.4303 50.189C20.567 51.5238 22.9089 52.4976 25.362 53.0716L26.2202 53.2695V57.2197C26.2202 57.6928 26.6053 58.0779 27.0784 58.0779H34.1643C34.6374 58.0779 35.0225 57.6928 35.0225 57.2197V53.2588L35.8697 53.0716C38.3343 52.4994 40.6669 51.5313 42.8125 50.189L43.5607 49.7267L46.3554 52.5214C46.6854 52.8515 47.2356 52.8515 47.5657 52.5214L52.572 47.5151C52.7319 47.3543 52.8216 47.1369 52.8216 46.9102C52.8216 46.6834 52.7319 46.4658 52.572 46.305L49.7773 43.5102L50.2393 42.7621C51.5742 40.6254 52.5482 38.2834 53.1221 35.8302L53.3202 34.972H57.2702C57.7433 34.972 58.1284 34.5869 58.1284 34.1137V27.028C58.1284 26.8004 58.038 26.5821 57.877 26.4212C57.7161 26.2602 57.4978 26.1698 57.2702 26.1698H53.3091L53.1221 25.3115C52.5485 22.8582 51.5746 20.5162 50.2393 18.3797L49.7773 17.6316L52.572 14.8368C52.7319 14.676 52.8216 14.4584 52.8216 14.2316C52.8216 14.0048 52.7319 13.7875 52.572 13.6267L47.5657 8.6093C47.4022 8.45454 47.1856 8.36835 46.9605 8.36835C46.7354 8.36835 46.5188 8.45454 46.3554 8.6093L43.5607 11.4041L42.8125 10.9418C40.6748 9.61112 38.333 8.64109 35.8807 8.07018L35.0225 7.8722V3.9221C35.0225 3.69448 34.9321 3.47622 34.7711 3.31528C34.6102 3.15433 34.3919 3.06384 34.1643 3.06384H27.0784C26.8508 3.06384 26.6325 3.15433 26.4716 3.31528C26.3106 3.47622 26.2202 3.69448 26.2202 3.9221V7.88295L25.373 8.07018C22.9084 8.64232 20.5758 9.61042 18.4303 10.9418L17.682 11.4041L14.8873 8.6093C14.7239 8.45454 14.5073 8.36835 14.2822 8.36835C14.0571 8.36835 13.8405 8.45454 13.677 8.6093L8.67073 13.6267C8.51082 13.7875 8.42107 14.0048 8.42107 14.2316C8.42107 14.4584 8.51082 14.676 8.67073 14.8368L11.4544 17.6316L10.9923 18.3687C9.66373 20.51 8.69719 22.8558 8.1316 25.3115L7.92254 26.1698H3.97254C3.74492 26.1698 3.52663 26.2602 3.36568 26.4212C3.20474 26.5821 3.11432 26.8004 3.11432 27.028V34.1137C3.11432 34.5869 3.49942 34.972 3.97254 34.972H7.93356L8.12059 35.8192C8.69273 38.2839 9.661 40.6165 10.9923 42.7621L11.4544 43.5102L8.67073 46.2939C8.58989 46.3738 8.52572 46.4687 8.48192 46.5736C8.43811 46.6784 8.41553 46.7909 8.41553 46.9045C8.41553 47.0181 8.43811 47.1306 8.48192 47.2355C8.52572 47.3403 8.58989 47.4353 8.67073 47.5151L13.677 52.5214C14.0071 52.8515 14.5573 52.8515 14.8873 52.5214L17.682 49.7267ZM30.6214 41.5737C27.7883 41.447 25.1134 40.2324 23.1535 38.1829C21.1936 36.1333 20.0997 33.4067 20.0997 30.5709C20.0997 27.735 21.1936 25.0084 23.1535 22.9589C25.1134 20.9093 27.7883 19.6948 30.6214 19.5681C33.4544 19.6948 36.1293 20.9093 38.0892 22.9589C40.0491 25.0084 41.143 27.735 41.143 30.5709C41.143 33.4067 40.0491 36.1333 38.0892 38.1829C36.1293 40.2324 33.4544 41.447 30.6214 41.5737ZM30.6214 21.7686C28.363 21.8816 26.2344 22.8581 24.6759 24.4965C23.1175 26.1349 22.2484 28.3097 22.2484 30.5709C22.2484 32.8321 23.1175 35.0069 24.6759 36.6453C26.2344 38.2836 28.363 39.2602 30.6214 39.3731C32.8797 39.2602 35.0083 38.2836 36.5668 36.6453C38.1252 35.0069 38.9943 32.8321 38.9943 30.5709C38.9943 28.3097 38.1252 26.1349 36.5668 24.4965C35.0083 22.8581 32.8797 21.8816 30.6214 21.7686Z" fill="white"/>
</svg>
