<svg width="61" height="67" viewBox="0 0 61 67" fill="none" xmlns="http://www.w3.org/2000/svg">
<path d="M0.710366 15.4069C0.708939 15.2018 0.764814 15.0006 0.871742 14.8256C0.978669 14.6506 1.13238 14.509 1.31551 14.4167L29.8898 0.135118C30.0518 0.0465166 30.2334 0 30.418 0C30.6025 0 30.7841 0.0465166 30.9461 0.135118L59.4984 14.4167C59.6856 14.5059 59.8439 14.6461 59.9548 14.8213C60.0658 14.9965 60.125 15.1995 60.1255 15.4069V50.6159C60.127 50.8209 60.0711 51.0222 59.9642 51.1972C59.8572 51.3722 59.7035 51.5138 59.5204 51.606L30.9241 65.8987C30.7677 65.9797 30.5941 66.0222 30.418 66.0222C30.2418 66.0222 30.0682 65.9797 29.9118 65.8987L1.33753 51.606C1.14689 51.5153 0.986372 51.3716 0.875166 51.1921C0.763961 51.0126 0.706755 50.805 0.710366 50.5939V15.4069ZM29.3177 63.137V29.3143L2.91093 17.1234V48.8994L3.35107 48.6904C3.60754 48.5836 3.89487 48.5777 4.15546 48.674C4.41605 48.7703 4.63054 48.9617 4.7559 49.2096C4.88126 49.4576 4.90822 49.7437 4.83132 50.0107C4.75441 50.2776 4.57933 50.5057 4.34128 50.6489L29.3177 63.137ZM57.925 17.1234L31.5182 29.3143V36.9725C31.7608 36.9113 32.0169 36.9344 32.2444 37.0383L34.2359 37.9627C34.5014 38.0838 34.7081 38.3055 34.8102 38.5789C34.9124 38.8523 34.9017 39.1549 34.7806 39.4205C34.6595 39.686 34.4379 39.8926 34.1644 39.9948C33.891 40.0969 33.5883 40.0863 33.3227 39.9652L31.5182 39.129V63.137L56.4946 50.6489L55.2953 50.0988C55.0508 49.9645 54.8664 49.7425 54.7795 49.4775C54.6925 49.2124 54.7095 48.9241 54.8269 48.6711C54.9443 48.418 55.1535 48.2192 55.412 48.1145C55.6706 48.0098 55.9592 48.0072 56.2196 48.1072L57.925 48.8994V17.1234ZM36.7006 24.4952L56.4836 15.3628L31.3422 2.79771C31.2425 2.95213 31.1056 3.07915 30.9441 3.16707C30.7827 3.25499 30.6018 3.30084 30.418 3.30084C30.2341 3.30084 30.0532 3.25499 29.8918 3.16707C29.7303 3.07915 29.5934 2.95213 29.4937 2.79771L4.35229 15.3628L22.782 23.868L29.3177 26.8827V26.4097C29.3177 26.1179 29.4336 25.8381 29.64 25.6318C29.8463 25.4254 30.1261 25.3094 30.418 25.3094C30.7098 25.3094 30.9896 25.4254 31.196 25.6318C31.4023 25.8381 31.5182 26.1179 31.5182 26.4097V26.8827L36.7006 24.4952ZM7.80719 48.9434C7.55962 48.9396 7.32055 48.8523 7.12872 48.6958C6.93688 48.5392 6.80347 48.3227 6.75003 48.0809C6.69658 47.8391 6.72626 47.5862 6.83424 47.3634C6.94222 47.1406 7.12222 46.9609 7.34509 46.853L9.3366 45.9287C9.59697 45.8286 9.88561 45.8312 10.1441 45.9359C10.4027 46.0406 10.6118 46.2395 10.7292 46.4925C10.8466 46.7455 10.8636 47.0339 10.7766 47.2989C10.6897 47.564 10.5053 47.786 10.2608 47.9203L8.26929 48.8443C8.1251 48.9142 7.96741 48.9519 7.80719 48.9545V48.9434ZM51.7634 48.3603C51.604 48.3611 51.4463 48.3275 51.3013 48.2614L49.2987 47.3371C49.0543 47.2028 48.87 46.9808 48.783 46.7157C48.696 46.4507 48.7129 46.1623 48.8303 45.9093C48.9478 45.6563 49.1569 45.4574 49.4155 45.3527C49.674 45.2481 49.9626 45.2455 50.223 45.3455L52.2255 46.2588C52.4547 46.3632 52.641 46.5429 52.7536 46.7681C52.8661 46.9934 52.898 47.2505 52.844 47.4964C52.7899 47.7423 52.6531 47.9621 52.4565 48.1193C52.2598 48.2765 52.0152 48.3616 51.7634 48.3603V48.3603ZM13.8037 46.1817C13.5562 46.1778 13.3171 46.0906 13.1253 45.9341C12.9334 45.7775 12.8 45.5609 12.7466 45.3192C12.6931 45.0774 12.7228 44.8245 12.8308 44.6017C12.9388 44.3789 13.1187 44.1992 13.3416 44.0913L15.3331 43.1559C15.5986 43.0334 15.902 43.0213 16.1764 43.1224C16.4509 43.2235 16.6739 43.4295 16.7965 43.6951C16.919 43.9606 16.9311 44.2641 16.83 44.5386C16.7289 44.813 16.5229 45.036 16.2573 45.1585L14.2548 46.0826C14.1118 46.1486 13.9578 46.1817 13.8037 46.1817V46.1817ZM45.7669 45.5985C45.6067 45.596 45.449 45.5586 45.3048 45.4887L43.3132 44.5754C43.0477 44.4543 42.8411 44.2325 42.739 43.9591C42.6368 43.6857 42.6475 43.3831 42.7686 43.1175C42.8897 42.852 43.1113 42.6454 43.3847 42.5432C43.6581 42.4411 43.9609 42.4517 44.2265 42.5728L46.229 43.4971C46.4519 43.605 46.6319 43.7849 46.7398 44.0078C46.8478 44.2306 46.8774 44.4832 46.824 44.725C46.7705 44.9667 46.6371 45.1833 46.4453 45.3399C46.2535 45.4964 46.0145 45.5837 45.7669 45.5875V45.5985ZM19.8002 43.409C19.5517 43.4075 19.3111 43.3221 19.1174 43.1664C18.9237 43.0107 18.7884 42.7939 18.7335 42.5515C18.6787 42.3092 18.7075 42.0555 18.8153 41.8316C18.9231 41.6077 19.1034 41.4269 19.3271 41.3186L21.3296 40.3942C21.59 40.2942 21.8786 40.2968 22.1372 40.4015C22.3957 40.5062 22.6049 40.7051 22.7223 40.9581C22.8397 41.2111 22.8567 41.4995 22.7697 41.7645C22.6828 42.0295 22.4984 42.2515 22.2539 42.3858L20.2514 43.3101C20.1072 43.38 19.9495 43.4174 19.7893 43.42L19.8002 43.409ZM39.7703 42.8258C39.611 42.8267 39.4533 42.793 39.3082 42.727L37.3167 41.8026C37.0722 41.6684 36.8879 41.4463 36.8009 41.1813C36.714 40.9163 36.7309 40.6282 36.8483 40.3752C36.9657 40.1221 37.1748 39.923 37.4334 39.8183C37.6919 39.7136 37.9806 39.711 38.2409 39.8111L40.2324 40.7244C40.4616 40.8288 40.648 41.0085 40.7606 41.2337C40.8731 41.4589 40.905 41.716 40.8509 41.9619C40.7969 42.2078 40.66 42.4279 40.4634 42.5851C40.2667 42.7424 40.0221 42.8272 39.7703 42.8258V42.8258ZM25.7968 40.6473C25.5483 40.6458 25.3076 40.5604 25.1139 40.4047C24.9202 40.249 24.7849 40.0322 24.7301 39.7898C24.6752 39.5475 24.704 39.2938 24.8118 39.0699C24.9196 38.846 25.1 38.6652 25.3236 38.5568L27.3262 37.6215C27.4577 37.5608 27.5998 37.5268 27.7445 37.521C27.8892 37.5153 28.0336 37.5381 28.1695 37.5882C28.3054 37.6383 28.4301 37.7145 28.5365 37.8128C28.6428 37.911 28.7289 38.0291 28.7896 38.1606C28.8502 38.2921 28.8844 38.4344 28.8902 38.5791C28.8959 38.7238 28.8731 38.8682 28.8231 39.0041C28.773 39.14 28.6966 39.2647 28.5984 39.371C28.5001 39.4774 28.3819 39.5634 28.2504 39.6241L26.2479 40.5484C26.1029 40.6145 25.9451 40.6481 25.7857 40.6473H25.7968ZM30.418 23.1089C30.1261 23.1089 29.8463 22.9929 29.64 22.7865C29.4336 22.5802 29.3177 22.3004 29.3177 22.0086V19.808C29.3177 19.5162 29.4336 19.2364 29.64 19.0301C29.8463 18.8237 30.1261 18.7077 30.418 18.7077C30.7098 18.7077 30.9896 18.8237 31.196 19.0301C31.4023 19.2364 31.5182 19.5162 31.5182 19.808V22.0086C31.5182 22.3004 31.4023 22.5802 31.196 22.7865C30.9896 22.9929 30.7098 23.1089 30.418 23.1089ZM30.418 16.5072C30.1261 16.5072 29.8463 16.3912 29.64 16.1848C29.4336 15.9785 29.3177 15.6987 29.3177 15.4069V13.2063C29.3177 12.9145 29.4336 12.6347 29.64 12.4284C29.8463 12.2221 30.1261 12.106 30.418 12.106C30.7098 12.106 30.9896 12.2221 31.196 12.4284C31.4023 12.6347 31.5182 12.9145 31.5182 13.2063V15.4069C31.5182 15.6987 31.4023 15.9785 31.196 16.1848C30.9896 16.3912 30.7098 16.5072 30.418 16.5072ZM30.418 9.90548C30.1261 9.90548 29.8463 9.78948 29.64 9.58314C29.4336 9.37679 29.3177 9.09702 29.3177 8.8052V6.60464C29.3177 6.31283 29.4336 6.03305 29.64 5.82671C29.8463 5.62037 30.1261 5.50436 30.418 5.50436C30.7098 5.50436 30.9896 5.62037 31.196 5.82671C31.4023 6.03305 31.5182 6.31283 31.5182 6.60464V8.8052C31.5182 9.09702 31.4023 9.37679 31.196 9.58314C30.9896 9.78948 30.7098 9.90548 30.418 9.90548Z" fill="white"/>
</svg>
