<svg width="14" height="308" viewBox="0 0 14 308" fill="none" xmlns="http://www.w3.org/2000/svg">
<path d="M6.63516 307.74C5.98555 307.74 5.45966 307.214 5.45966 306.565V1.17547C5.45966 0.52587 5.98555 0 6.63516 0C7.28478 0 7.81067 0.52587 7.81067 1.17547V306.549C7.81067 307.214 7.28478 307.74 6.63516 307.74Z" fill="#84E4A4"/>
<path d="M6.63516 158.92C2.96956 158.92 0 155.95 0 152.285V141.752C0 138.086 2.96956 135.117 6.63516 135.117C10.3008 135.117 13.2703 138.086 13.2703 141.752V152.285C13.2703 155.935 10.3008 158.92 6.63516 158.92Z" fill="#84E4A4"/>
<path opacity="0.5" d="M6.63516 143.964C6.00103 143.964 5.47516 143.438 5.47516 142.804V141.102C5.47516 140.468 6.00103 139.942 6.63516 139.942C7.2693 139.942 7.79517 140.468 7.79517 141.102V142.804C7.79517 143.438 7.28476 143.964 6.63516 143.964Z" fill="#161242"/>
<path opacity="0.3" d="M11.7237 23.9424C11.7237 26.7419 9.45013 29.031 6.63519 29.031C3.83573 29.031 1.54669 26.7574 1.54669 23.9424C1.54669 21.143 3.82026 18.8539 6.63519 18.8539C9.45013 18.8539 11.7237 21.143 11.7237 23.9424Z" fill="#84E4A4"/>
<path opacity="0.5" d="M11.7237 40.3835C11.7237 43.1829 9.45013 45.472 6.63519 45.472C3.83573 45.472 1.54669 43.1984 1.54669 40.3835C1.54669 37.584 3.82026 35.2949 6.63519 35.2949C9.45013 35.2949 11.7237 37.5685 11.7237 40.3835Z" fill="#84E4A4"/>
<path opacity="0.8" d="M11.7237 56.8091C11.7237 59.6086 9.45013 61.8976 6.63519 61.8976C3.83573 61.8976 1.54669 59.624 1.54669 56.8091C1.54669 54.0096 3.82026 51.7206 6.63519 51.7206C9.45013 51.7206 11.7237 54.0096 11.7237 56.8091Z" fill="#84E4A4"/>
<path d="M11.7237 73.2501C11.7237 76.0496 9.45013 78.3387 6.63519 78.3387C3.83573 78.3387 1.54669 76.0651 1.54669 73.2501C1.54669 70.4507 3.82026 68.1616 6.63519 68.1616C9.45013 68.1616 11.7237 70.4352 11.7237 73.2501Z" fill="#84E4A4"/>
<path d="M11.7237 89.351C11.7237 92.1505 9.45013 94.4395 6.63519 94.4395C3.83573 94.4395 1.54669 92.1659 1.54669 89.351C1.54669 86.5515 3.82026 84.2625 6.63519 84.2625C9.45013 84.2779 11.7237 86.5515 11.7237 89.351Z" fill="#84E4A4"/>
</svg>
