<svg width="1448" height="1517" viewBox="0 0 1448 1517" fill="none" xmlns="http://www.w3.org/2000/svg">
<g opacity="0.4">
<path opacity="0.4" d="M1250.22 92.8443C1290.57 221.338 1163.1 481.248 1225.1 534.651C1306.61 604.881 1383.57 536.079 1573.49 588.87C1645.01 608.756 1747.06 637.106 1808.72 712.264C1942.39 875.159 1868.93 1236.81 1668.2 1369.69C1525.36 1464.26 1608.98 1419.28 1269.46 1451.48C897.169 1486.76 816.13 1435.87 605.101 1494.2C369.7 1559.27 140.214 1482.14 39.3224 1262.88C-32.4708 1106.89 -8.36977 942.193 134.435 812.238C254.328 703.12 356.885 783.174 499.519 682.997C509.581 675.926 577.907 626.5 596.671 543.761C607.549 495.695 604.626 461.702 586.983 417.681C469.843 124.934 581.68 -30.3462 715.545 -90.2079C849.409 -150.104 1161.6 -189.195 1250.22 92.8443Z" fill="url(#paint0_linear_103_12)"/>
</g>
<g opacity="0.5">
<g opacity="0.5">
<g opacity="0.5">
<path opacity="0.5" d="M43.5036 618.036C43.4016 618.308 43.2996 618.614 43.1976 618.886L586.541 305.164C586.133 305.164 585.759 305.164 585.352 305.198L43.5036 618.036Z" fill="url(#paint1_radial_103_12)"/>
</g>
<g opacity="0.5">
<path opacity="0.5" d="M22.3259 722.122L740.462 307.51C740.122 307.476 739.748 307.476 739.408 307.442L22.3259 721.476C22.3259 721.68 22.3259 721.918 22.3259 722.122Z" fill="url(#paint2_radial_103_12)"/>
</g>
<g opacity="0.5">
<path opacity="0.5" d="M34.5294 806.289L877.793 319.441C877.487 319.407 877.147 319.373 876.841 319.339L34.3594 805.711C34.4274 805.915 34.4614 806.085 34.5294 806.289Z" fill="url(#paint3_radial_103_12)"/>
</g>
<g opacity="0.5">
<path opacity="0.5" d="M62.7436 880.53C62.8115 880.7 62.9135 880.87 62.9815 881.04L1000.85 339.565C1000.58 339.497 1000.27 339.463 999.998 339.395L62.7436 880.53Z" fill="url(#paint4_radial_103_12)"/>
</g>
<g opacity="0.5">
<path opacity="0.5" d="M100.204 950.079C100.306 950.249 100.408 950.419 100.51 950.589L1115.81 364.414C1115.54 364.346 1115.27 364.278 1115 364.21L100.204 950.079Z" fill="url(#paint5_radial_103_12)"/>
</g>
<g opacity="0.5">
<path opacity="0.5" d="M1228.12 390.079L144.701 1015.62C144.803 1015.79 144.939 1015.92 145.041 1016.09L1228.94 390.317C1228.67 390.215 1228.4 390.147 1228.12 390.079Z" fill="url(#paint6_radial_103_12)"/>
</g>
<g opacity="0.5">
<path opacity="0.5" d="M204.596 1072.86L1312.53 433.216C1312.36 433.08 1312.22 432.944 1312.05 432.808L203.984 1072.56C204.188 1072.66 204.392 1072.76 204.596 1072.86Z" fill="url(#paint7_radial_103_12)"/>
</g>
<g opacity="0.5">
<path opacity="0.5" d="M284.378 1118L1383.74 483.288C1383.54 483.186 1383.37 483.05 1383.17 482.948L283.8 1117.66C284.004 1117.8 284.174 1117.9 284.378 1118Z" fill="url(#paint8_radial_103_12)"/>
</g>
<g opacity="0.5">
<path opacity="0.5" d="M361.644 1164.61L1461.89 529.382C1461.69 529.28 1461.52 529.144 1461.32 529.042L361.032 1164.27C361.236 1164.41 361.44 1164.51 361.644 1164.61Z" fill="url(#paint9_radial_103_12)"/>
</g>
<g opacity="0.5">
<path opacity="0.5" d="M446.898 1206.56L1537.02 577.176C1536.85 577.04 1536.65 576.938 1536.48 576.802L446.219 1206.28C446.456 1206.39 446.694 1206.49 446.898 1206.56Z" fill="url(#paint10_radial_103_12)"/>
</g>
<g opacity="0.5">
<path opacity="0.5" d="M545.342 1240.92L1610 626.228C1609.83 626.092 1609.66 625.99 1609.46 625.854L544.594 1240.72C544.832 1240.79 545.07 1240.86 545.342 1240.92Z" fill="url(#paint11_radial_103_12)"/>
</g>
<g opacity="0.5">
<path opacity="0.5" d="M652.658 1270.19L1657.86 689.829C1657.83 689.625 1657.76 689.455 1657.73 689.251L651.842 1269.99C652.114 1270.06 652.386 1270.12 652.658 1270.19Z" fill="url(#paint12_radial_103_12)"/>
</g>
<g opacity="0.5">
<path opacity="0.5" d="M768.676 1294.36L1672.24 772.67C1672.21 772.466 1672.21 772.262 1672.18 772.024L767.792 1294.22C768.098 1294.29 768.404 1294.33 768.676 1294.36Z" fill="url(#paint13_radial_103_12)"/>
</g>
<g opacity="0.5">
<path opacity="0.5" d="M903.9 1307.52L1674.96 862.343C1674.96 862.106 1675 861.902 1675 861.664L902.88 1307.45C903.22 1307.45 903.56 1307.48 903.9 1307.52Z" fill="url(#paint14_radial_103_12)"/>
</g>
<g opacity="0.5">
<path opacity="0.5" d="M1048.91 1314.99L1665.82 958.815C1665.85 958.578 1665.89 958.34 1665.95 958.068L1047.79 1314.96C1048.17 1314.96 1048.54 1314.96 1048.91 1314.99Z" fill="url(#paint15_radial_103_12)"/>
</g>
</g>
<g opacity="0.5">
<g opacity="0.5">
<path opacity="0.5" d="M1649.91 664.028C1649.81 663.756 1649.71 663.45 1649.6 663.178L1142.39 370.329C1141.75 370.193 1141.14 370.057 1140.49 369.887L1649.91 664.028Z" fill="url(#paint16_radial_103_12)"/>
</g>
<g opacity="0.5">
<path opacity="0.5" d="M900.161 322.365L1671.8 767.877C1671.77 767.639 1671.73 767.401 1671.7 767.163L901.69 322.603C901.18 322.535 900.671 322.433 900.161 322.365Z" fill="url(#paint17_radial_103_12)"/>
</g>
<g opacity="0.5">
<path opacity="0.5" d="M714.389 306.32L1675.03 860.95C1675.03 860.746 1675.03 860.508 1675.06 860.304L715.647 306.388C715.239 306.354 714.831 306.354 714.389 306.32Z" fill="url(#paint18_radial_103_12)"/>
</g>
<g opacity="0.5">
<path opacity="0.5" d="M555.88 305.98L1667.52 947.768C1667.55 947.564 1667.59 947.36 1667.62 947.156L556.967 305.946C556.594 305.98 556.254 305.98 555.88 305.98Z" fill="url(#paint19_radial_103_12)"/>
</g>
<g opacity="0.5">
<path opacity="0.5" d="M445.539 333.481L1613.1 1007.56C1613.23 1007.43 1613.37 1007.29 1613.54 1007.15L446.15 333.175C445.947 333.277 445.742 333.379 445.539 333.481Z" fill="url(#paint20_radial_103_12)"/>
</g>
<g opacity="0.5">
<path opacity="0.5" d="M1552.38 1063.72C1552.55 1063.58 1552.69 1063.45 1552.86 1063.31L361.814 375.7C361.61 375.802 361.406 375.904 361.202 376.006L1552.38 1063.72Z" fill="url(#paint21_radial_103_12)"/>
</g>
<g opacity="0.5">
<path opacity="0.5" d="M1485.86 1116.51C1486.03 1116.37 1486.2 1116.27 1486.37 1116.13L280.197 419.755C279.993 419.857 279.789 419.959 279.619 420.095L1485.86 1116.51Z" fill="url(#paint22_radial_103_12)"/>
</g>
<g opacity="0.5">
<path opacity="0.5" d="M1412.64 1165.42C1412.81 1165.32 1413.01 1165.19 1413.18 1165.08L201.061 465.271C200.857 465.373 200.687 465.509 200.483 465.611L1412.64 1165.42Z" fill="url(#paint23_radial_103_12)"/>
</g>
<g opacity="0.5">
<path opacity="0.5" d="M1333.95 1211.18C1334.15 1211.08 1334.35 1210.98 1334.52 1210.84L124.169 512.08C123.999 512.182 123.795 512.318 123.625 512.42L1333.95 1211.18Z" fill="url(#paint24_radial_103_12)"/>
</g>
<g opacity="0.5">
<path opacity="0.5" d="M66.8567 570.82L1254.2 1256.32C1254.4 1256.22 1254.57 1256.08 1254.78 1255.98L67.1286 570.344C67.0266 570.514 66.9586 570.65 66.8567 570.82Z" fill="url(#paint25_radial_103_12)"/>
</g>
<g opacity="0.5">
<path opacity="0.5" d="M34.7334 643.497L1174.45 1301.5C1174.65 1301.4 1174.86 1301.29 1175.03 1301.16L34.9033 642.885C34.8354 643.123 34.8014 643.293 34.7334 643.497Z" fill="url(#paint26_radial_103_12)"/>
</g>
<g opacity="0.5">
<path opacity="0.5" d="M22.3599 727.527L1039.36 1314.72C1039.77 1314.72 1040.18 1314.76 1040.59 1314.76L22.3259 726.847C22.3259 727.085 22.3599 727.323 22.3599 727.527Z" fill="url(#paint27_radial_103_12)"/>
</g>
<g opacity="0.5">
<path opacity="0.5" d="M42.2458 830.22L863.516 1304.39C863.958 1304.42 864.4 1304.46 864.876 1304.49L41.9739 829.404C42.0759 829.676 42.1438 829.948 42.2458 830.22Z" fill="url(#paint28_radial_103_12)"/>
</g>
<g opacity="0.5">
<path opacity="0.5" d="M104.793 957.524L641.406 1267.34C642.086 1267.51 642.766 1267.68 643.48 1267.85L104.113 956.436C104.351 956.844 104.555 957.184 104.793 957.524Z" fill="url(#paint29_radial_103_12)"/>
</g>
</g>
</g>
<defs>
<linearGradient id="paint0_linear_103_12" x1="0.118959" y1="691.774" x2="1442.5" y2="692" gradientUnits="userSpaceOnUse">
<stop stop-color="#2A49F9" stop-opacity="0.26"/>
<stop offset="0.291667" stop-color="#0C1DFD" stop-opacity="0.781991"/>
<stop offset="0.651042" stop-color="#0C1A94"/>
<stop offset="1" stop-color="#2A49F9" stop-opacity="0.18"/>
</linearGradient>
<radialGradient id="paint1_radial_103_12" cx="0" cy="0" r="1" gradientUnits="userSpaceOnUse" gradientTransform="translate(814.971 777.17) scale(484.624 484.624)">
<stop stop-color="#70C5A3"/>
<stop offset="0.4947" stop-color="#0A11AB"/>
<stop offset="1"/>
</radialGradient>
<radialGradient id="paint2_radial_103_12" cx="0" cy="0" r="1" gradientUnits="userSpaceOnUse" gradientTransform="translate(814.971 777.17) scale(484.622)">
<stop stop-color="#70C5A3"/>
<stop offset="0.4947" stop-color="#0A11AB"/>
<stop offset="1"/>
</radialGradient>
<radialGradient id="paint3_radial_103_12" cx="0" cy="0" r="1" gradientUnits="userSpaceOnUse" gradientTransform="translate(814.971 777.17) scale(484.623 484.623)">
<stop stop-color="#70C5A3"/>
<stop offset="0.4947" stop-color="#0A11AB"/>
<stop offset="1"/>
</radialGradient>
<radialGradient id="paint4_radial_103_12" cx="0" cy="0" r="1" gradientUnits="userSpaceOnUse" gradientTransform="translate(814.971 777.17) scale(484.625 484.625)">
<stop stop-color="#70C5A3"/>
<stop offset="0.4947" stop-color="#0A11AB"/>
<stop offset="1"/>
</radialGradient>
<radialGradient id="paint5_radial_103_12" cx="0" cy="0" r="1" gradientUnits="userSpaceOnUse" gradientTransform="translate(814.972 777.17) scale(484.625)">
<stop stop-color="#70C5A3"/>
<stop offset="0.4947" stop-color="#0A11AB"/>
<stop offset="1"/>
</radialGradient>
<radialGradient id="paint6_radial_103_12" cx="0" cy="0" r="1" gradientUnits="userSpaceOnUse" gradientTransform="translate(814.971 777.17) scale(484.626)">
<stop stop-color="#70C5A3"/>
<stop offset="0.4947" stop-color="#0A11AB"/>
<stop offset="1"/>
</radialGradient>
<radialGradient id="paint7_radial_103_12" cx="0" cy="0" r="1" gradientUnits="userSpaceOnUse" gradientTransform="translate(814.971 777.17) scale(484.625)">
<stop stop-color="#70C5A3"/>
<stop offset="0.4947" stop-color="#0A11AB"/>
<stop offset="1"/>
</radialGradient>
<radialGradient id="paint8_radial_103_12" cx="0" cy="0" r="1" gradientUnits="userSpaceOnUse" gradientTransform="translate(814.971 777.17) scale(484.625)">
<stop stop-color="#70C5A3"/>
<stop offset="0.4947" stop-color="#0A11AB"/>
<stop offset="1"/>
</radialGradient>
<radialGradient id="paint9_radial_103_12" cx="0" cy="0" r="1" gradientUnits="userSpaceOnUse" gradientTransform="translate(814.971 777.17) scale(484.624)">
<stop stop-color="#70C5A3"/>
<stop offset="0.4947" stop-color="#0A11AB"/>
<stop offset="1"/>
</radialGradient>
<radialGradient id="paint10_radial_103_12" cx="0" cy="0" r="1" gradientUnits="userSpaceOnUse" gradientTransform="translate(814.972 777.17) scale(484.624)">
<stop stop-color="#70C5A3"/>
<stop offset="0.4947" stop-color="#0A11AB"/>
<stop offset="1"/>
</radialGradient>
<radialGradient id="paint11_radial_103_12" cx="0" cy="0" r="1" gradientUnits="userSpaceOnUse" gradientTransform="translate(814.971 777.17) scale(484.624)">
<stop stop-color="#70C5A3"/>
<stop offset="0.4947" stop-color="#0A11AB"/>
<stop offset="1"/>
</radialGradient>
<radialGradient id="paint12_radial_103_12" cx="0" cy="0" r="1" gradientUnits="userSpaceOnUse" gradientTransform="translate(814.971 777.17) scale(484.624)">
<stop stop-color="#70C5A3"/>
<stop offset="0.4947" stop-color="#0A11AB"/>
<stop offset="1"/>
</radialGradient>
<radialGradient id="paint13_radial_103_12" cx="0" cy="0" r="1" gradientUnits="userSpaceOnUse" gradientTransform="translate(814.971 777.17) scale(484.624)">
<stop stop-color="#70C5A3"/>
<stop offset="0.4947" stop-color="#0A11AB"/>
<stop offset="1"/>
</radialGradient>
<radialGradient id="paint14_radial_103_12" cx="0" cy="0" r="1" gradientUnits="userSpaceOnUse" gradientTransform="translate(814.972 777.17) scale(484.624)">
<stop stop-color="#70C5A3"/>
<stop offset="0.4947" stop-color="#0A11AB"/>
<stop offset="1"/>
</radialGradient>
<radialGradient id="paint15_radial_103_12" cx="0" cy="0" r="1" gradientUnits="userSpaceOnUse" gradientTransform="translate(814.972 777.169) scale(484.625)">
<stop stop-color="#70C5A3"/>
<stop offset="0.4947" stop-color="#0A11AB"/>
<stop offset="1"/>
</radialGradient>
<radialGradient id="paint16_radial_103_12" cx="0" cy="0" r="1" gradientUnits="userSpaceOnUse" gradientTransform="translate(814.97 777.17) scale(484.625)">
<stop stop-color="#70C5A3"/>
<stop offset="0.6481" stop-color="#0A11AB"/>
<stop offset="1"/>
</radialGradient>
<radialGradient id="paint17_radial_103_12" cx="0" cy="0" r="1" gradientUnits="userSpaceOnUse" gradientTransform="translate(814.972 777.17) scale(484.624)">
<stop stop-color="#70C5A3"/>
<stop offset="0.6481" stop-color="#0A11AB"/>
<stop offset="1"/>
</radialGradient>
<radialGradient id="paint18_radial_103_12" cx="0" cy="0" r="1" gradientUnits="userSpaceOnUse" gradientTransform="translate(814.972 777.17) scale(484.624)">
<stop stop-color="#70C5A3"/>
<stop offset="0.6481" stop-color="#0A11AB"/>
<stop offset="1"/>
</radialGradient>
<radialGradient id="paint19_radial_103_12" cx="0" cy="0" r="1" gradientUnits="userSpaceOnUse" gradientTransform="translate(814.972 777.17) scale(484.624)">
<stop stop-color="#70C5A3"/>
<stop offset="0.6481" stop-color="#0A11AB"/>
<stop offset="1"/>
</radialGradient>
<radialGradient id="paint20_radial_103_12" cx="0" cy="0" r="1" gradientUnits="userSpaceOnUse" gradientTransform="translate(814.971 777.17) scale(484.625)">
<stop stop-color="#70C5A3"/>
<stop offset="0.6481" stop-color="#0A11AB"/>
<stop offset="1"/>
</radialGradient>
<radialGradient id="paint21_radial_103_12" cx="0" cy="0" r="1" gradientUnits="userSpaceOnUse" gradientTransform="translate(814.971 777.17) scale(484.624)">
<stop stop-color="#70C5A3"/>
<stop offset="0.6481" stop-color="#0A11AB"/>
<stop offset="1"/>
</radialGradient>
<radialGradient id="paint22_radial_103_12" cx="0" cy="0" r="1" gradientUnits="userSpaceOnUse" gradientTransform="translate(814.971 777.17) scale(484.624)">
<stop stop-color="#70C5A3"/>
<stop offset="0.6481" stop-color="#0A11AB"/>
<stop offset="1"/>
</radialGradient>
<radialGradient id="paint23_radial_103_12" cx="0" cy="0" r="1" gradientUnits="userSpaceOnUse" gradientTransform="translate(814.971 777.17) scale(484.624)">
<stop stop-color="#70C5A3"/>
<stop offset="0.6481" stop-color="#0A11AB"/>
<stop offset="1"/>
</radialGradient>
<radialGradient id="paint24_radial_103_12" cx="0" cy="0" r="1" gradientUnits="userSpaceOnUse" gradientTransform="translate(814.971 777.17) scale(484.622)">
<stop stop-color="#70C5A3"/>
<stop offset="0.6481" stop-color="#0A11AB"/>
<stop offset="1"/>
</radialGradient>
<radialGradient id="paint25_radial_103_12" cx="0" cy="0" r="1" gradientUnits="userSpaceOnUse" gradientTransform="translate(814.971 777.17) scale(484.624)">
<stop stop-color="#70C5A3"/>
<stop offset="0.6481" stop-color="#0A11AB"/>
<stop offset="1"/>
</radialGradient>
<radialGradient id="paint26_radial_103_12" cx="0" cy="0" r="1" gradientUnits="userSpaceOnUse" gradientTransform="translate(814.972 777.17) scale(484.625)">
<stop stop-color="#70C5A3"/>
<stop offset="0.6481" stop-color="#0A11AB"/>
<stop offset="1"/>
</radialGradient>
<radialGradient id="paint27_radial_103_12" cx="0" cy="0" r="1" gradientUnits="userSpaceOnUse" gradientTransform="translate(814.971 777.17) scale(484.624 484.624)">
<stop stop-color="#70C5A3"/>
<stop offset="0.6481" stop-color="#0A11AB"/>
<stop offset="1"/>
</radialGradient>
<radialGradient id="paint28_radial_103_12" cx="0" cy="0" r="1" gradientUnits="userSpaceOnUse" gradientTransform="translate(814.971 777.17) scale(484.625)">
<stop stop-color="#70C5A3"/>
<stop offset="0.6481" stop-color="#0A11AB"/>
<stop offset="1"/>
</radialGradient>
<radialGradient id="paint29_radial_103_12" cx="0" cy="0" r="1" gradientUnits="userSpaceOnUse" gradientTransform="translate(814.972 777.172) scale(484.622)">
<stop stop-color="#70C5A3"/>
<stop offset="0.6481" stop-color="#0A11AB"/>
<stop offset="1"/>
</radialGradient>
</defs>
</svg>
