<svg width="1920" height="2036" viewBox="0 0 1920 2036" fill="none" xmlns="http://www.w3.org/2000/svg">
<g opacity="0.3">
<g opacity="0.6">
<g opacity="0.8">
<path opacity="0.2" d="M-752.945 577.349C-262.134 422.663 -145.812 588.237 334.98 404.937C360.476 395.218 588.409 292.875 757.492 383.97C868.534 443.78 973.547 513.999 1048.93 623.031C1124.3 732.064 1158.98 833.268 1166.75 964.107C1173.71 1081.06 1127.75 1124.7 1081.38 1158.24C1022.26 1200.98 937.763 1175.72 866.765 1190.42C795.796 1205.12 721.738 1246.63 706.62 1324.17C689.883 1409.95 799.395 1557.5 826.451 1643.92C876.153 1802.62 775.129 1967.63 637.001 2017.93C498.874 2068.23 357.866 1999.27 290.467 1917.17C234.886 1849.44 196.192 2041.2 -33.2707 1933.85C-247.226 1833.76 141.061 1568.54 -119.687 1454.92C-178.657 1429.21 -260.034 1403.27 -270.653 1473C-281.271 1542.77 -279.711 1617.34 -306.737 1680.24C-346.3 1772.33 -446.064 1821.34 -541.449 1805.14C-636.833 1788.94 -664.129 1781.09 -711.281 1685.76C-758.464 1590.47 -756.184 1675.17 -735.158 1574.66C-728.229 1541.6 -719.74 1502.01 -741.757 1475.46C-758.074 1455.82 -785.19 1452.79 -807.356 1458.79C-888.433 1480.65 -858.648 1511.91 -905.95 1585.58C-962.731 1673.94 -1086.94 1720.88 -1169.01 1646.89C-1233.95 1588.34 -1242.71 1483.83 -1227.65 1397.96C-1183.98 1149.06 -960.931 642.888 -752.945 577.349Z" fill="#00008D"/>
<path opacity="0.35" d="M-69.3845 365.493C388.732 355.355 613.935 323.05 1070.61 285.946C1094.82 283.966 1441.14 100.996 1563.04 220.946C1643.1 299.714 1715.42 385.86 1752.73 497.832C1790.05 609.804 1794.52 704.949 1768.63 818.75C1745.47 920.464 1710.02 1044.16 1569.04 1107.21C1509.74 1133.73 1394.2 1094.89 1329.86 1089.79C1265.52 1084.69 1191.88 1101.75 1159.67 1164.29C1124.03 1233.49 1180.96 1386.89 1182.58 1467.46C1185.58 1615.48 1058.16 1731.44 927.565 1740.08C796.966 1748.72 681.064 1655.56 646.96 1512.06C628.933 1436.14 634.452 1355.48 616.935 1279.42C599.418 1203.35 545.906 1126.38 476.707 1129.05C419.477 1131.24 375.714 1186.58 349.258 1243.57C322.832 1300.56 305.615 1364.72 266.861 1411.75C210.14 1480.62 112.626 1497.72 35.1184 1460.17C-42.389 1422.58 -136.364 1368.35 -152.981 1275.13C-169.598 1181.9 -178.297 1100.46 -135.284 1019.78C-121.126 993.232 -104.029 961.497 -116.267 933.332C-125.326 912.455 -147.762 903.157 -168.219 902.737C-242.967 901.267 -256.734 1026.77 -315.525 1078C-386.044 1139.43 -576.963 1129.29 -635.454 1050.16C-753.005 891.158 -631.614 692.53 -597.36 622.852C-498.076 420.924 -263.513 369.782 -69.3845 365.493Z" fill="#00008D"/>
<path opacity="0.2" d="M706.38 4.92038C1144.85 137.949 1417.48 370.142 1862.99 477.104C1886.6 482.774 2289.35 692.08 2367.84 844.005C2419.37 943.769 2461.28 1048.18 2461.85 1166.21C2462.42 1284.24 2437.04 1376.06 2376.99 1476.12C2323.3 1565.57 2251.1 1672.08 2097.5 1688.1C2032.89 1694.82 1935.19 1621.93 1875.65 1597.03C1816.11 1572.14 1740.82 1565.45 1690.73 1614.82C1635.3 1669.47 1643.58 1687.95 1620.03 1765.04C1576.78 1906.64 1419.58 1977.16 1292.79 1944.68C1165.97 1912.19 1084.86 1787.56 1097.16 1640.59C1103.67 1562.84 1132.1 1632.94 1139.12 1555.19C1146.17 1477.47 1119.29 1387.67 1052.7 1368.62C997.633 1352.87 938.813 1391.84 895.92 1437.76C853.057 1483.68 816.703 1539.29 765.231 1571.93C689.883 1619.71 591.889 1605.58 529.949 1545.74C468.009 1485.9 395.57 1405.1 408.828 1311.33C422.086 1217.57 439.183 1137.48 505.173 1074.19C526.889 1053.37 553.015 1028.54 550.165 997.971C548.036 975.324 529.649 959.487 510.332 952.738C439.753 928.052 387.592 1043.05 315.783 1073.38C229.637 1109.79 51.3758 1040.68 20.4207 947.279C-41.7592 759.599 135.452 608.633 189.683 553.112C346.948 392.128 520.56 -51.4705 706.38 4.92038Z" fill="#00008D"/>
</g>
</g>
</g>
</svg>
