<svg width="93" height="102" viewBox="0 0 93 102" fill="none" xmlns="http://www.w3.org/2000/svg">
<path d="M81.0037 69.0933C81.0037 70.3487 80.5329 71.5097 79.7483 72.3884C80.2939 72.9891 80.6816 73.7163 80.8767 74.504C81.0717 75.2917 81.068 76.1153 80.8657 76.9011C80.6634 77.687 80.2689 78.4103 79.7178 79.0059C79.1666 79.6015 78.4762 80.0506 77.7083 80.3131V83.9067H74.4129V80.6116H71.0861V83.9067H67.7908V80.6116H64.4797V64.1657H67.7751V60.8705H71.0861V64.1657H74.3972V60.8705H77.6926V64.4641C78.6556 64.7985 79.4911 65.423 80.0841 66.2521C80.6771 67.0812 80.9984 68.074 81.0037 69.0933ZM77.7083 75.684C77.7083 74.7738 76.9708 74.0362 76.045 74.0362H67.7908V77.3317H76.045C76.9708 77.3317 77.7083 76.5784 77.7083 75.6683V75.684ZM77.7083 69.0933C77.7083 68.1831 76.9708 67.4455 76.045 67.4455H67.7908V70.741H76.045C76.9708 70.741 77.7083 70.0034 77.7083 69.0933ZM57.8575 72.3884C57.8575 75.7937 59.0659 79.1208 61.2314 81.7571L58.6736 83.8439C56.4947 81.1902 55.1166 77.9709 54.7007 74.5626C54.2847 71.1543 54.848 67.6981 56.3247 64.5982C57.8014 61.4984 60.1303 58.8831 63.039 57.0585C65.9478 55.234 69.316 54.2757 72.7495 54.2955C76.9237 54.2955 81.0194 55.739 84.252 58.3753L82.1649 60.9176C79.991 59.1325 77.3552 58.0006 74.5637 57.6543C71.7721 57.3079 68.9395 57.7613 66.3953 58.9611C63.8511 60.1609 61.6997 62.0581 60.1911 64.4323C58.6825 66.8065 57.8787 69.5602 57.8732 72.3731L57.8575 72.3884ZM86.8256 60.9334C89.4789 64.1618 90.9317 68.2095 90.9369 72.3884C90.9348 75.8302 89.9544 79.2006 88.11 82.1065C86.2657 85.0124 83.6335 87.3343 80.5201 88.8014C77.4067 90.2684 73.9403 90.82 70.5253 90.3924C67.1102 89.9649 63.887 88.5756 61.2314 86.3862L63.3341 83.8439C65.508 85.6291 68.1439 86.7609 70.9355 87.1073C73.727 87.4536 76.5595 87.0003 79.1037 85.8005C81.648 84.6007 83.7994 82.7034 85.308 80.3292C86.8165 77.955 87.6204 75.2014 87.6259 72.3884C87.6259 68.9832 86.4333 65.6408 84.2677 63.0202L86.8256 60.9334ZM28.1049 41.1295C28.1049 42.3849 27.6341 43.5462 26.8495 44.425C27.3916 45.0257 27.7764 45.7513 27.9694 46.5371C28.1623 47.3229 28.1576 48.1443 27.9555 48.9277C27.7534 49.7112 27.3603 50.4324 26.8113 51.0268C26.2623 51.6212 25.5745 52.0704 24.8095 52.334V55.9429H21.4985V52.6478H18.1874V55.9429H14.892V52.6478H11.5652V36.1866H14.8763V32.891H18.1717V36.1866H21.4985V32.891H24.7938V36.5003C25.7568 36.8347 26.5923 37.4596 27.1853 38.2887C27.7783 39.1178 28.0996 40.1102 28.1049 41.1295ZM24.8095 47.7202C24.8095 46.7943 24.0563 46.0571 23.1462 46.0571H14.8763V49.3522H23.1462C24.0563 49.3522 24.7938 48.6146 24.7938 47.7045L24.8095 47.7202ZM24.8095 41.1295C24.8095 40.2193 24.0563 39.4817 23.1462 39.4817H14.8763V42.7772H23.1462C24.0563 42.7772 24.7938 42.0396 24.7938 41.1295H24.8095ZM29.2505 32.9696C27.0766 31.1844 24.4407 30.0529 21.6491 29.7066C18.8576 29.3602 16.0251 29.8132 13.4809 31.013C10.9367 32.2128 8.78524 34.11 7.27666 36.4842C5.76807 38.8584 4.96423 41.6121 4.95873 44.425C4.95873 47.8302 6.15137 51.157 8.3169 53.7776L5.75905 55.8648C3.5802 53.211 2.20222 49.9914 1.78626 46.5831C1.37031 43.1748 1.93361 39.7186 3.41028 36.6187C4.88695 33.5189 7.2159 30.9036 10.1246 29.079C13.0333 27.2545 16.4016 26.2962 19.8351 26.316C24.0249 26.316 28.1049 27.7756 31.3532 30.3962L29.2505 32.9696ZM33.9111 32.9696C36.0899 35.6233 37.468 38.8425 37.8839 42.2509C38.2999 45.6592 37.7366 49.1154 36.2599 52.2152C34.7833 55.3151 32.4543 57.9304 29.5456 59.7549C26.6369 61.5794 23.2686 62.5381 19.8351 62.5183C15.6609 62.5183 11.5652 61.0588 8.33261 58.4381L10.4197 55.8805C12.5936 57.6657 15.2294 58.7971 18.021 59.1435C20.8125 59.4898 23.6451 59.0368 26.1893 57.837C28.7335 56.6372 30.885 54.74 32.3935 52.3658C33.9021 49.9916 34.7059 47.2379 34.7114 44.425C34.7114 41.0041 33.5187 37.6774 31.3532 35.0568L33.9111 32.9696ZM47.94 26.316H51.251V102H41.3336V26.316H44.6289V29.6116H47.94V26.316ZM47.94 32.9067H44.6446V98.7045H47.94V32.9067ZM92.5846 17.3558V21.3884L88.9126 21.3417C88.7086 21.2946 68.9834 16.7908 54.5465 16.4769V23.0362H38.0224V16.4769C23.6012 16.7908 3.87604 21.2946 3.67204 21.3417L3.31105 21.3884H0V17.3558L0.549192 16.8692C1.17688 16.32 15.4883 3.93859 38.0224 3.34228V0H54.5622V3.34228C77.0963 3.93859 91.4234 16.32 92.0354 16.8692L92.5846 17.3558ZM38.0224 6.62211C26.1155 7.01196 14.5811 10.8678 4.83326 17.7167C10.2 16.5711 25.751 13.4482 38.0224 13.1814V6.62211ZM51.251 3.29554H41.3336V19.741H51.251V3.29554ZM87.7514 17.7167C77.9994 10.876 66.4675 7.02099 54.5622 6.62211V13.1814C66.8179 13.4482 82.3689 16.5711 87.7514 17.7167ZM61.1686 36.1866H64.464V39.4817H61.1686V36.1866ZM61.1686 42.7772H64.464V46.0728H61.1686V42.7772ZM64.464 39.4817H67.7908V42.7772H64.4797L64.464 39.4817ZM57.8732 39.4817H61.1686V42.7772H57.8732V39.4817ZM28.1049 69.0933H31.4003V72.3884H28.1049V69.0933ZM28.1049 75.684H31.4003V78.9795H28.1049V75.684ZM31.4003 72.3884H34.7114V75.684H31.416L31.4003 72.3884ZM24.8095 72.3884H28.1049V75.684H24.8095V72.3884ZM3.31105 62.5026H6.6065V65.7977H3.31105V62.5026ZM3.31105 69.0933H6.6065V72.3884H3.31105V69.0933ZM6.6065 65.7977H9.91755V69.0933H6.62211L6.6065 65.7977ZM0 65.7977H3.29535V69.0933H0V65.7977ZM84.3147 92.1295H87.6102V95.425H84.3147V92.1295ZM84.3147 98.7202H87.6102V102H84.3147V98.7202ZM87.6102 95.425H90.9369V98.7202H87.6259L87.6102 95.425ZM81.0194 95.425H84.3147V98.7202H81.0194V95.425ZM71.0861 23.0362H74.3972V26.3317H71.1018L71.0861 23.0362ZM71.0861 29.6116H74.3972V32.9067H71.1018L71.0861 29.6116ZM74.3972 26.316H77.6926V29.6116H74.3972V26.316ZM67.7908 26.316H71.0861V29.6116H67.7908V26.316ZM85.9781 42.7772H89.2736V46.0728H85.9781V42.7772ZM85.9781 49.3679H89.2736V52.6478H85.9781V49.3679ZM89.2736 46.0728H92.5846V49.3679H89.2893L89.2736 46.0728ZM82.6671 46.0728H85.9625V49.3679H82.6671V46.0728Z" fill="#16BF86"/>
</svg>
