<svg width="67" height="67" viewBox="0 0 67 67" fill="none" xmlns="http://www.w3.org/2000/svg">
<path d="M66.4265 66.1165H0.409668V0.0996094H66.4265V66.1165ZM2.61023 63.9159H64.226V15.5035H2.61023V63.9159ZM8.11164 12.2027C6.94439 12.2027 5.82501 11.7389 4.99963 10.9136C4.17426 10.0882 3.71051 8.96883 3.71051 7.80158C3.71051 6.63433 4.17426 5.51495 4.99963 4.68958C5.82501 3.86421 6.94439 3.40045 8.11164 3.40045C9.27889 3.40045 10.3983 3.86421 11.2236 4.68958C12.049 5.51495 12.5128 6.63433 12.5128 7.80158C12.5128 8.96883 12.049 10.0882 11.2236 10.9136C10.3983 11.7389 9.27889 12.2027 8.11164 12.2027ZM8.11164 5.60102C7.52801 5.60102 6.96832 5.83276 6.55564 6.24544C6.14295 6.65813 5.91107 7.21795 5.91107 7.80158C5.91107 8.3852 6.14295 8.94503 6.55564 9.35771C6.96832 9.7704 7.52801 10.0021 8.11164 10.0021C8.69526 10.0021 9.25495 9.7704 9.66764 9.35771C10.0803 8.94503 10.3122 8.3852 10.3122 7.80158C10.3122 7.21795 10.0803 6.65813 9.66764 6.24544C9.25495 5.83276 8.69526 5.60102 8.11164 5.60102ZM18.0142 12.2027C16.8469 12.2027 15.7275 11.7389 14.9022 10.9136C14.0768 10.0882 13.613 8.96883 13.613 7.80158C13.613 6.63433 14.0768 5.51495 14.9022 4.68958C15.7275 3.86421 16.8469 3.40045 18.0142 3.40045C19.1814 3.40045 20.3008 3.86421 21.1262 4.68958C21.9515 5.51495 22.4153 6.63433 22.4153 7.80158C22.4153 8.96883 21.9515 10.0882 21.1262 10.9136C20.3008 11.7389 19.1814 12.2027 18.0142 12.2027ZM18.0142 5.60102C17.4305 5.60102 16.8709 5.83276 16.4582 6.24544C16.0455 6.65813 15.8136 7.21795 15.8136 7.80158C15.8136 8.3852 16.0455 8.94503 16.4582 9.35771C16.8709 9.7704 17.4305 10.0021 18.0142 10.0021C18.5978 10.0021 19.1575 9.7704 19.5702 9.35771C19.9829 8.94503 20.2147 8.3852 20.2147 7.80158C20.2147 7.21795 19.9829 6.65813 19.5702 6.24544C19.1575 5.83276 18.5978 5.60102 18.0142 5.60102ZM27.9167 12.2027C26.7494 12.2027 25.6301 11.7389 24.8047 10.9136C23.9793 10.0882 23.5156 8.96883 23.5156 7.80158C23.5156 6.63433 23.9793 5.51495 24.8047 4.68958C25.6301 3.86421 26.7494 3.40045 27.9167 3.40045C29.0839 3.40045 30.2033 3.86421 31.0287 4.68958C31.8541 5.51495 32.3178 6.63433 32.3178 7.80158C32.3178 8.96883 31.8541 10.0882 31.0287 10.9136C30.2033 11.7389 29.0839 12.2027 27.9167 12.2027ZM27.9167 5.60102C27.3331 5.60102 26.7734 5.83276 26.3607 6.24544C25.948 6.65813 25.7161 7.21795 25.7161 7.80158C25.7161 8.3852 25.948 8.94503 26.3607 9.35771C26.7734 9.7704 27.3331 10.0021 27.9167 10.0021C28.5003 10.0021 29.06 9.7704 29.4727 9.35771C29.8854 8.94503 30.1173 8.3852 30.1173 7.80158C30.1173 7.21795 29.8854 6.65813 29.4727 6.24544C29.06 5.83276 28.5003 5.60102 27.9167 5.60102ZM64.226 13.303V2.30017H2.61023V13.303H64.226ZM56.524 38.6094H35.6187V17.7041H36.7189C47.1606 17.7041 55.7318 25.8241 56.4689 36.0787C56.5246 36.2529 56.5359 36.4382 56.502 36.6179L56.524 37.4982V38.6094ZM37.8192 36.4089H41.1201C41.1201 36.1171 41.2359 35.8373 41.4423 35.631C41.6486 35.4246 41.9285 35.3086 42.2204 35.3086C42.5122 35.3086 42.7921 35.4246 42.9984 35.631C43.2048 35.8373 43.3206 36.1171 43.3206 36.4089H47.7218C47.7218 36.1171 47.8376 35.8373 48.044 35.631C48.2503 35.4246 48.5302 35.3086 48.822 35.3086C49.1138 35.3086 49.3938 35.4246 49.6001 35.631C49.8064 35.8373 49.9223 36.1171 49.9223 36.4089H54.2904C54.0421 32.5034 52.5019 28.7915 49.9124 25.8574C47.3229 22.9232 43.8311 20.9336 39.9867 20.2018C39.9216 20.4619 39.7636 20.6892 39.5426 20.8411C39.3215 20.993 39.0526 21.0589 38.7864 21.0264C38.5202 20.994 38.275 20.8656 38.0968 20.6651C37.9187 20.4646 37.8201 20.2059 37.8192 19.9377V26.5064C37.8192 26.2145 37.9351 25.9348 38.1414 25.7284C38.3478 25.5221 38.6277 25.4061 38.9195 25.4061C39.2113 25.4061 39.4912 25.5221 39.6976 25.7284C39.9039 25.9348 40.0198 26.2145 40.0198 26.5064C40.0198 26.7982 39.9039 27.0779 39.6976 27.2843C39.4912 27.4906 39.2113 27.6066 38.9195 27.6066C38.6277 27.6066 38.3478 27.4906 38.1414 27.2843C37.9351 27.0779 37.8192 26.7982 37.8192 26.5064V33.108C37.8192 32.8162 37.9351 32.5365 38.1414 32.3301C38.3478 32.1238 38.6277 32.0078 38.9195 32.0078C39.2113 32.0078 39.4912 32.1238 39.6976 32.3301C39.9039 32.5365 40.0198 32.8162 40.0198 33.108C40.0198 33.3999 39.9039 33.6796 39.6976 33.886C39.4912 34.0923 39.2113 34.2083 38.9195 34.2083C38.6277 34.2083 38.3478 34.0923 38.1414 33.886C37.9351 33.6796 37.8192 33.3999 37.8192 33.108V36.4089ZM32.3178 61.7154C21.392 61.7154 12.5128 52.8251 12.5128 41.9103C12.5128 30.9845 21.392 22.1052 32.3178 22.1052H33.4181V40.81H52.1229V41.9103C52.1229 52.8251 43.2436 61.7154 32.3178 61.7154ZM31.2175 24.3388C22.0192 24.911 14.7133 32.5689 14.7133 41.9103C14.7133 51.6148 22.6133 59.5148 32.3178 59.5148C41.6592 59.5148 49.3171 52.2089 49.8893 43.0106H31.2175V24.3388ZM48.822 30.9075C48.5302 30.9075 48.2503 30.7915 48.044 30.5851C47.8376 30.3788 47.7218 30.099 47.7218 29.8072C47.7218 29.5154 47.8376 29.2356 48.044 29.0293C48.2503 28.8229 48.5302 28.7069 48.822 28.7069C49.1138 28.7069 49.3938 28.8229 49.6001 29.0293C49.8064 29.2356 49.9223 29.5154 49.9223 29.8072C49.9223 30.099 49.8064 30.3788 49.6001 30.5851C49.3938 30.7915 49.1138 30.9075 48.822 30.9075ZM52.1229 34.2083C51.8311 34.2083 51.5512 34.0923 51.3448 33.886C51.1385 33.6796 51.0226 33.3999 51.0226 33.108C51.0226 32.8162 51.1385 32.5365 51.3448 32.3301C51.5512 32.1238 51.8311 32.0078 52.1229 32.0078C52.4147 32.0078 52.6946 32.1238 52.9009 32.3301C53.1073 32.5365 53.2232 32.8162 53.2232 33.108C53.2232 33.3999 53.1073 33.6796 52.9009 33.886C52.6946 34.0923 52.4147 34.2083 52.1229 34.2083ZM45.5212 27.6066C45.2294 27.6066 44.9495 27.4906 44.7431 27.2843C44.5368 27.0779 44.4209 26.7982 44.4209 26.5064C44.4209 26.2145 44.5368 25.9348 44.7431 25.7284C44.9495 25.5221 45.2294 25.4061 45.5212 25.4061C45.813 25.4061 46.0929 25.5221 46.2993 25.7284C46.5056 25.9348 46.6215 26.2145 46.6215 26.5064C46.6215 26.7982 46.5056 27.0779 46.2993 27.2843C46.0929 27.4906 45.813 27.6066 45.5212 27.6066ZM42.2204 24.3058C41.9285 24.3058 41.6486 24.1898 41.4423 23.9834C41.2359 23.7771 41.1201 23.4973 41.1201 23.2055C41.1201 22.9137 41.2359 22.6339 41.4423 22.4276C41.6486 22.2212 41.9285 22.1052 42.2204 22.1052C42.5122 22.1052 42.7921 22.2212 42.9984 22.4276C43.2048 22.6339 43.3206 22.9137 43.3206 23.2055C43.3206 23.4973 43.2048 23.7771 42.9984 23.9834C42.7921 24.1898 42.5122 24.3058 42.2204 24.3058ZM42.2204 30.9075C41.9285 30.9075 41.6486 30.7915 41.4423 30.5851C41.2359 30.3788 41.1201 30.099 41.1201 29.8072C41.1201 29.5154 41.2359 29.2356 41.4423 29.0293C41.6486 28.8229 41.9285 28.7069 42.2204 28.7069C42.5122 28.7069 42.7921 28.8229 42.9984 29.0293C43.2048 29.2356 43.3206 29.5154 43.3206 29.8072C43.3206 30.099 43.2048 30.3788 42.9984 30.5851C42.7921 30.7915 42.5122 30.9075 42.2204 30.9075ZM45.5212 34.2083C45.2294 34.2083 44.9495 34.0923 44.7431 33.886C44.5368 33.6796 44.4209 33.3999 44.4209 33.108C44.4209 32.8162 44.5368 32.5365 44.7431 32.3301C44.9495 32.1238 45.2294 32.0078 45.5212 32.0078C45.813 32.0078 46.0929 32.1238 46.2993 32.3301C46.5056 32.5365 46.6215 32.8162 46.6215 33.108C46.6215 33.3999 46.5056 33.6796 46.2993 33.886C46.0929 34.0923 45.813 34.2083 45.5212 34.2083Z" fill="white"/>
</svg>
