<svg width="67" height="67" viewBox="0 0 67 67" fill="none" xmlns="http://www.w3.org/2000/svg">
<path d="M1.60175 20.9053C1.30993 20.9053 1.03009 20.7893 0.823746 20.583C0.617403 20.3766 0.501465 20.0969 0.501465 19.8051V0H20.3065C20.5983 0 20.8782 0.116005 21.0845 0.322348C21.2909 0.528691 21.4068 0.808468 21.4068 1.10028C21.4068 1.39209 21.2909 1.67187 21.0845 1.87821C20.8782 2.08456 20.5983 2.20056 20.3065 2.20056H2.70203V19.8051C2.70203 20.0969 2.58609 20.3766 2.37975 20.583C2.1734 20.7893 1.89356 20.9053 1.60175 20.9053ZM66.5183 66.0169H47.8136C47.5217 66.0169 47.2419 65.9009 47.0356 65.6945C46.8292 65.4882 46.7133 65.2084 46.7133 64.9166C46.7133 64.6248 46.8292 64.345 47.0356 64.1387C47.2419 63.9323 47.5217 63.8163 47.8136 63.8163H64.3178V47.3121C64.3178 47.0203 64.4337 46.7405 64.6401 46.5342C64.8464 46.3278 65.1262 46.2118 65.4181 46.2118C65.7099 46.2118 65.9897 46.3278 66.1961 46.5342C66.4024 46.7405 66.5183 47.0203 66.5183 47.3121V66.0169ZM65.4181 20.9053C65.1262 20.9053 64.8464 20.7893 64.6401 20.583C64.4337 20.3766 64.3178 20.0969 64.3178 19.8051V2.20056H47.8136C47.5217 2.20056 47.2419 2.08456 47.0356 1.87821C46.8292 1.67187 46.7133 1.39209 46.7133 1.10028C46.7133 0.808468 46.8292 0.528691 47.0356 0.322348C47.2419 0.116005 47.5217 0 47.8136 0H66.5183V19.8051C66.5183 20.0969 66.4024 20.3766 66.1961 20.583C65.9897 20.7893 65.7099 20.9053 65.4181 20.9053ZM20.3065 66.0169H0.501465V47.3121C0.501465 47.0203 0.617403 46.7405 0.823746 46.5342C1.03009 46.3278 1.30993 46.2118 1.60175 46.2118C1.89356 46.2118 2.1734 46.3278 2.37975 46.5342C2.58609 46.7405 2.70203 47.0203 2.70203 47.3121V63.8163H20.3065C20.5983 63.8163 20.8782 63.9323 21.0845 64.1387C21.2909 64.345 21.4068 64.6248 21.4068 64.9166C21.4068 65.2084 21.2909 65.4882 21.0845 65.6945C20.8782 65.9009 20.5983 66.0169 20.3065 66.0169ZM35.4244 58.2048H35.3914C35.2469 58.2005 35.1046 58.1679 34.9728 58.1086C34.8409 58.0493 34.722 57.9646 34.6229 57.8593C34.5238 57.7541 34.4463 57.6305 34.3951 57.4953C34.3438 57.3601 34.3197 57.2162 34.3241 57.0717C34.9843 38.477 32.6407 32.5353 32.6187 32.4803C32.5063 32.2104 32.5058 31.9069 32.6173 31.6366C32.7287 31.3663 32.9429 31.1512 33.2128 31.0389C33.4827 30.9265 33.7862 30.9261 34.0565 31.0375C34.3269 31.149 34.5418 31.3632 34.6542 31.6331C34.7642 31.8861 37.1958 37.9046 36.5247 57.1595C36.5133 57.4437 36.3924 57.7124 36.1873 57.9093C35.9821 58.1062 35.7087 58.216 35.4244 58.2158V58.2048ZM57.7161 34.956C57.4424 34.9573 57.178 34.8567 56.9745 34.6736C56.7711 34.4905 56.6432 34.2382 56.6158 33.9658C56.3216 30.3392 55.4564 26.7817 54.0521 23.425C51.779 18.023 47.4546 13.7442 42.0288 11.5285C36.6029 9.3128 30.5195 9.34142 25.1147 11.608C23.5744 12.2462 22.133 13.0054 20.8236 13.8636C20.7023 13.9431 20.5665 13.9979 20.4239 14.0248C20.2814 14.0518 20.1349 14.0504 19.9929 14.0208C19.8509 13.9912 19.7161 13.9338 19.5962 13.8521C19.4763 13.7704 19.3738 13.6659 19.2943 13.5445C19.2148 13.4232 19.16 13.2874 19.133 13.1448C19.1061 13.0023 19.1074 12.8557 19.1371 12.7137C19.1667 12.5717 19.224 12.4368 19.3057 12.3169C19.3874 12.197 19.492 12.0945 19.6133 12.015C21.0437 11.0907 22.6061 10.2656 24.2566 9.58341C30.1983 7.08965 36.8869 7.05635 42.8532 9.49073C48.8195 11.9251 53.5755 16.6282 56.0767 22.5668C57.5511 26.0657 58.3873 29.4985 58.8164 33.7455C58.8318 33.899 58.8148 34.0541 58.7665 34.2006C58.7181 34.347 58.6395 34.4816 58.5357 34.5957C58.432 34.7099 58.3054 34.801 58.1642 34.863C58.023 34.9251 57.8703 34.9567 57.7161 34.956ZM15.6853 15.1729C15.7886 15.0718 15.9109 14.9921 16.045 14.9381C16.1792 14.8842 16.3227 14.8571 16.4672 14.8586C16.6118 14.8602 16.7546 14.8903 16.8876 14.947C17.0206 15.0037 17.1411 15.086 17.2423 15.1893C17.3434 15.2926 17.4232 15.4148 17.4771 15.549C17.531 15.6831 17.558 15.8267 17.5564 15.9713C17.5549 16.1158 17.5249 16.2587 17.4682 16.3917C17.4114 16.5246 17.3291 16.6451 17.2258 16.7462C13.2097 20.6853 11.0972 25.8016 10.9321 31.9302C10.8331 35.4511 11.4053 39.302 12.6156 43.373C12.6575 43.5117 12.6716 43.6575 12.6573 43.8017C12.6429 43.9459 12.6003 44.0858 12.5318 44.2135C12.4634 44.3412 12.3704 44.454 12.2583 44.5458C12.1462 44.6376 12.0171 44.7064 11.8784 44.7483C11.7397 44.7902 11.5941 44.8046 11.4499 44.7903C11.3057 44.7759 11.1657 44.7333 11.038 44.6648C10.9103 44.5964 10.7973 44.5032 10.7055 44.3911C10.6137 44.279 10.545 44.15 10.503 44.0112C9.28011 40.0802 8.68593 35.9806 8.74256 31.8641C8.9186 25.2404 11.3172 19.475 15.6743 15.1729H15.6853ZM52.5778 49.2706H52.5448C52.4002 49.2663 52.258 49.2337 52.1262 49.1745C51.9943 49.1152 51.8754 49.0304 51.7763 48.9252C51.6772 48.8199 51.5998 48.6961 51.5485 48.5609C51.4972 48.4257 51.4731 48.2818 51.4775 48.1373C51.6536 41.3486 51.6425 36.2872 50.9714 32.0951V32.0841C50.7193 30.4883 50.3328 28.9166 49.8161 27.3859C47.6705 21.0483 40.5407 15.5028 34.2581 15.2828C32.0131 15.1958 29.7735 15.5609 27.6723 16.3562C25.5711 17.1516 23.6512 18.361 22.0266 19.9128C20.4019 21.4646 19.1057 23.327 18.2148 25.3895C17.324 27.452 16.8566 29.6726 16.8406 31.9192C16.8281 33.5113 17.043 35.097 17.4788 36.6284C17.7539 37.5966 18.029 38.642 18.194 39.7313C18.5131 41.8768 18.8541 45.8708 18.7111 52.6596C18.7053 52.9476 18.5869 53.2217 18.3812 53.4233C18.1754 53.6249 17.8989 53.7379 17.6108 53.7378H17.5889C17.4444 53.735 17.3018 53.7036 17.1694 53.6457C17.037 53.5877 16.9173 53.5041 16.8172 53.3999C16.717 53.2957 16.6384 53.1729 16.5858 53.0383C16.5332 52.9037 16.5076 52.76 16.5105 52.6155C16.6536 45.9698 16.3235 42.1187 16.0154 40.0501C15.8566 39.0943 15.6361 38.1499 15.3553 37.2226C14.5363 34.341 14.4116 31.3063 14.9911 28.3672C15.5707 25.428 16.8382 22.6678 18.6898 20.3128C20.5414 17.9577 22.9244 16.0748 25.6438 14.8181C28.3632 13.5613 31.3416 12.9664 34.3351 13.0822C41.564 13.3353 49.4419 19.442 51.9066 26.6818C52.4457 28.2772 52.8419 29.9277 53.1389 31.7322C53.8431 36.1003 53.8651 41.2716 53.6671 48.2034C53.6585 48.4894 53.5388 48.7608 53.3334 48.9601C53.1279 49.1593 52.853 49.2707 52.5668 49.2706H52.5778ZM22.9142 56.4224H22.8702C22.5803 56.411 22.3066 56.2855 22.1088 56.0732C21.911 55.861 21.805 55.5791 21.8139 55.2891C22.111 46.7289 21.7589 40.1273 20.8236 36.6835L20.7796 36.5733C20.3725 35.0329 20.1745 33.4595 20.2295 31.8751C20.3505 27.3089 22.4081 23.3039 25.841 20.8943C26.0788 20.7251 26.3741 20.6573 26.662 20.7058C26.9498 20.7542 27.2066 20.9152 27.3758 21.153C27.5451 21.3908 27.6129 21.6861 27.5645 21.9739C27.516 22.2618 27.3551 22.5187 27.1173 22.6879C24.2455 24.7014 22.5291 28.0792 22.419 31.9302C22.386 33.3055 22.5511 34.6808 22.9142 36.0012C23.9485 39.8081 24.3225 46.4649 24.0145 55.3662C24.0031 55.6503 23.8822 55.919 23.6771 56.1159C23.472 56.3129 23.1985 56.4227 22.9142 56.4224ZM47.0544 53.7378H47.0214C46.8769 53.7336 46.7346 53.7007 46.6027 53.6414C46.4709 53.5821 46.352 53.4976 46.2528 53.3924C46.1537 53.2871 46.0763 53.1633 46.0251 53.0281C45.9738 52.8929 45.9497 52.749 45.9541 52.6045C46.3282 41.9648 46.3502 36.4743 45.5139 32.1171C45.2059 30.4997 44.7658 29.0365 44.1606 27.6061C43.1245 25.147 41.2591 23.1287 38.8891 21.9025C36.519 20.6762 33.7942 20.3195 31.1883 20.8943C30.9108 20.9394 30.6266 20.8766 30.394 20.7186C30.1614 20.5607 29.9981 20.3197 29.9376 20.0452C29.8771 19.7707 29.9239 19.4834 30.0685 19.2423C30.2131 19.0012 30.4445 18.8247 30.7152 18.7488C33.8236 18.0623 37.0742 18.4881 39.9011 19.9517C42.7279 21.4154 44.9517 23.8243 46.1852 26.7589C46.8453 28.3103 47.3404 29.9277 47.6705 31.6992C48.5507 36.2653 48.5397 41.8656 48.1546 52.6813C48.1433 52.9655 48.0224 53.2341 47.8172 53.4311C47.6121 53.628 47.3387 53.7381 47.0544 53.7378ZM41.773 54.1558H41.751C41.6065 54.1529 41.464 54.1216 41.3316 54.0637C41.1992 54.0057 41.0795 53.9224 40.9794 53.8181C40.8792 53.7139 40.8006 53.5909 40.748 53.4563C40.6954 53.3217 40.6698 53.178 40.6727 53.0335L40.7057 50.8439C40.7057 50.5521 40.8217 50.2724 41.028 50.066C41.2343 49.8597 41.5142 49.7437 41.806 49.7437C41.9514 49.7437 42.0954 49.7726 42.2296 49.8286C42.3638 49.8845 42.4856 49.9664 42.588 50.0698C42.6903 50.1731 42.7711 50.2958 42.8258 50.4305C42.8804 50.5653 42.9077 50.7095 42.9063 50.855L42.8733 53.0775C42.8675 53.3655 42.7491 53.6399 42.5434 53.8415C42.3376 54.0431 42.0611 54.1559 41.773 54.1558ZM41.773 47.477C41.485 47.4771 41.2084 47.3643 41.0027 47.1627C40.797 46.9611 40.6785 46.6868 40.6727 46.3988C40.4967 38.8068 39.7265 34.4828 39.1104 32.1942C38.926 31.4657 38.6869 30.7523 38.3951 30.0598C37.9369 28.9729 37.1201 28.0757 36.0808 27.5178C35.0415 26.9599 33.8425 26.775 32.6834 26.9937C31.5243 27.2124 30.4752 27.8216 29.7106 28.7199C28.9461 29.6181 28.5123 30.751 28.4816 31.9302C28.4596 32.6234 28.5806 33.2836 28.8117 33.9218C29.0427 34.6149 30.8362 40.6334 30.2641 56.9395C30.2527 57.2237 30.1318 57.4924 29.9267 57.6893C29.7215 57.8862 29.4481 57.996 29.1638 57.9958H29.1308C28.9863 57.9915 28.844 57.9589 28.7122 57.8996C28.5803 57.8403 28.4614 57.7556 28.3623 57.6503C28.2632 57.5451 28.1857 57.4213 28.1345 57.2861C28.0832 57.1509 28.0591 57.007 28.0635 56.8625C28.6356 40.6663 26.8312 34.9009 26.7431 34.6589C26.3259 33.5449 26.1845 32.3465 26.3309 31.1659C26.4773 29.9854 26.9072 28.8577 27.5839 27.8793C28.2607 26.901 29.164 26.1011 30.217 25.5477C31.27 24.9943 32.4413 24.7038 33.6309 24.7013C36.6017 24.7013 39.2644 26.4618 40.4197 29.1905C40.5737 29.5646 40.8928 30.3017 41.2449 31.6221C42.1691 35.077 42.7303 40.1711 42.8733 46.3547C42.8762 46.4992 42.8506 46.6429 42.798 46.7775C42.7454 46.9121 42.6668 47.0351 42.5667 47.1394C42.4665 47.2436 42.3468 47.3269 42.2144 47.3849C42.082 47.4428 41.9395 47.4742 41.795 47.477H41.773ZM7.10315 60.5155C7.10315 60.8073 6.98721 61.0871 6.78087 61.2934C6.57453 61.4997 6.29468 61.6157 6.00287 61.6157C5.71106 61.6157 5.43121 61.4997 5.22487 61.2934C5.01853 61.0871 4.90259 60.8073 4.90259 60.5155C4.90259 60.2236 5.01853 59.9439 5.22487 59.7375C5.43121 59.5312 5.71106 59.4152 6.00287 59.4152C6.29468 59.4152 6.57453 59.5312 6.78087 59.7375C6.98721 59.9439 7.10315 60.2236 7.10315 60.5155ZM11.5043 60.5155C11.5043 60.8073 11.3883 61.0871 11.182 61.2934C10.9757 61.4997 10.6958 61.6157 10.404 61.6157C10.1122 61.6157 9.83234 61.4997 9.62599 61.2934C9.41965 61.0871 9.30371 60.8073 9.30371 60.5155C9.30371 60.2236 9.41965 59.9439 9.62599 59.7375C9.83234 59.5312 10.1122 59.4152 10.404 59.4152C10.6958 59.4152 10.9757 59.5312 11.182 59.7375C11.3883 59.9439 11.5043 60.2236 11.5043 60.5155ZM15.9054 60.5155C15.9054 60.8073 15.7895 61.0871 15.5831 61.2934C15.3768 61.4997 15.0969 61.6157 14.8051 61.6157C14.5133 61.6157 14.2335 61.4997 14.0271 61.2934C13.8208 61.0871 13.7048 60.8073 13.7048 60.5155C13.7048 60.2236 13.8208 59.9439 14.0271 59.7375C14.2335 59.5312 14.5133 59.4152 14.8051 59.4152C15.0969 59.4152 15.3768 59.5312 15.5831 59.7375C15.7895 59.9439 15.9054 60.2236 15.9054 60.5155ZM13.7048 58.3149C13.7048 58.6067 13.5889 58.8865 13.3826 59.0928C13.1762 59.2992 12.8964 59.4152 12.6046 59.4152C12.3127 59.4152 12.0329 59.2992 11.8266 59.0928C11.6202 58.8865 11.5043 58.6067 11.5043 58.3149C11.5043 58.0231 11.6202 57.7433 11.8266 57.537C12.0329 57.3306 12.3127 57.2146 12.6046 57.2146C12.8964 57.2146 13.1762 57.3306 13.3826 57.537C13.5889 57.7433 13.7048 58.0231 13.7048 58.3149ZM18.106 58.3149C18.106 58.6067 17.99 58.8865 17.7837 59.0928C17.5773 59.2992 17.2975 59.4152 17.0057 59.4152C16.7139 59.4152 16.434 59.2992 16.2277 59.0928C16.0213 58.8865 15.9054 58.6067 15.9054 58.3149C15.9054 58.0231 16.0213 57.7433 16.2277 57.537C16.434 57.3306 16.7139 57.2146 17.0057 57.2146C17.2975 57.2146 17.5773 57.3306 17.7837 57.537C17.99 57.7433 18.106 58.0231 18.106 58.3149ZM20.3065 60.5155C20.3065 60.8073 20.1906 61.0871 19.9842 61.2934C19.7779 61.4997 19.4981 61.6157 19.2062 61.6157C18.9144 61.6157 18.6346 61.4997 18.4282 61.2934C18.2219 61.0871 18.106 60.8073 18.106 60.5155C18.106 60.2236 18.2219 59.9439 18.4282 59.7375C18.6346 59.5312 18.9144 59.4152 19.2062 59.4152C19.4981 59.4152 19.7779 59.5312 19.9842 59.7375C20.1906 59.9439 20.3065 60.2236 20.3065 60.5155ZM24.7076 60.5155C24.7076 60.8073 24.5917 61.0871 24.3854 61.2934C24.179 61.4997 23.8992 61.6157 23.6074 61.6157C23.3156 61.6157 23.0357 61.4997 22.8294 61.2934C22.623 61.0871 22.5071 60.8073 22.5071 60.5155C22.5071 60.2236 22.623 59.9439 22.8294 59.7375C23.0357 59.5312 23.3156 59.4152 23.6074 59.4152C23.8992 59.4152 24.179 59.5312 24.3854 59.7375C24.5917 59.9439 24.7076 60.2236 24.7076 60.5155ZM22.5071 58.3149C22.5071 58.6067 22.3911 58.8865 22.1848 59.0928C21.9785 59.2992 21.6986 59.4152 21.4068 59.4152C21.115 59.4152 20.8351 59.2992 20.6288 59.0928C20.4225 58.8865 20.3065 58.6067 20.3065 58.3149C20.3065 58.0231 20.4225 57.7433 20.6288 57.537C20.8351 57.3306 21.115 57.2146 21.4068 57.2146C21.6986 57.2146 21.9785 57.3306 22.1848 57.537C22.3911 57.7433 22.5071 58.0231 22.5071 58.3149ZM9.30371 58.3149C9.30371 58.6067 9.18778 58.8865 8.98143 59.0928C8.77509 59.2992 8.49525 59.4152 8.20343 59.4152C7.91162 59.4152 7.63177 59.2992 7.42543 59.0928C7.21909 58.8865 7.10315 58.6067 7.10315 58.3149C7.10315 58.0231 7.21909 57.7433 7.42543 57.537C7.63177 57.3306 7.91162 57.2146 8.20343 57.2146C8.49525 57.2146 8.77509 57.3306 8.98143 57.537C9.18778 57.7433 9.30371 58.0231 9.30371 58.3149ZM29.1088 60.5155C29.1088 60.8073 28.9928 61.0871 28.7865 61.2934C28.5802 61.4997 28.3003 61.6157 28.0085 61.6157C27.7167 61.6157 27.4368 61.4997 27.2305 61.2934C27.0241 61.0871 26.9082 60.8073 26.9082 60.5155C26.9082 60.2236 27.0241 59.9439 27.2305 59.7375C27.4368 59.5312 27.7167 59.4152 28.0085 59.4152C28.3003 59.4152 28.5802 59.5312 28.7865 59.7375C28.9928 59.9439 29.1088 60.2236 29.1088 60.5155ZM33.5099 60.5155C33.5099 60.8073 33.394 61.0871 33.1876 61.2934C32.9813 61.4997 32.7014 61.6157 32.4096 61.6157C32.1178 61.6157 31.838 61.4997 31.6316 61.2934C31.4253 61.0871 31.3093 60.8073 31.3093 60.5155C31.3093 60.2236 31.4253 59.9439 31.6316 59.7375C31.838 59.5312 32.1178 59.4152 32.4096 59.4152C32.7014 59.4152 32.9813 59.5312 33.1876 59.7375C33.394 59.9439 33.5099 60.2236 33.5099 60.5155ZM37.911 60.5155C37.911 60.8073 37.7951 61.0871 37.5887 61.2934C37.3824 61.4997 37.1026 61.6157 36.8107 61.6157C36.5189 61.6157 36.2391 61.4997 36.0327 61.2934C35.8264 61.0871 35.7105 60.8073 35.7105 60.5155C35.7105 60.2236 35.8264 59.9439 36.0327 59.7375C36.2391 59.5312 36.5189 59.4152 36.8107 59.4152C37.1026 59.4152 37.3824 59.5312 37.5887 59.7375C37.7951 59.9439 37.911 60.2236 37.911 60.5155ZM40.1116 58.3149C40.1116 58.6067 39.9956 58.8865 39.7893 59.0928C39.583 59.2992 39.3031 59.4152 39.0113 59.4152C38.7195 59.4152 38.4396 59.2992 38.2333 59.0928C38.027 58.8865 37.911 58.6067 37.911 58.3149C37.911 58.0231 38.027 57.7433 38.2333 57.537C38.4396 57.3306 38.7195 57.2146 39.0113 57.2146C39.3031 57.2146 39.583 57.3306 39.7893 57.537C39.9956 57.7433 40.1116 58.0231 40.1116 58.3149ZM26.9082 58.3149C26.9082 58.6067 26.7923 58.8865 26.5859 59.0928C26.3796 59.2992 26.0997 59.4152 25.8079 59.4152C25.5161 59.4152 25.2363 59.2992 25.0299 59.0928C24.8236 58.8865 24.7076 58.6067 24.7076 58.3149C24.7076 58.0231 24.8236 57.7433 25.0299 57.537C25.2363 57.3306 25.5161 57.2146 25.8079 57.2146C26.0997 57.2146 26.3796 57.3306 26.5859 57.537C26.7923 57.7433 26.9082 58.0231 26.9082 58.3149ZM42.3121 60.5155C42.3121 60.8073 42.1962 61.0871 41.9899 61.2934C41.7835 61.4997 41.5037 61.6157 41.2119 61.6157C40.9201 61.6157 40.6402 61.4997 40.4339 61.2934C40.2275 61.0871 40.1116 60.8073 40.1116 60.5155C40.1116 60.2236 40.2275 59.9439 40.4339 59.7375C40.6402 59.5312 40.9201 59.4152 41.2119 59.4152C41.5037 59.4152 41.7835 59.5312 41.9899 59.7375C42.1962 59.9439 42.3121 60.2236 42.3121 60.5155ZM46.7133 60.5155C46.7133 60.8073 46.5973 61.0871 46.391 61.2934C46.1846 61.4997 45.9048 61.6157 45.613 61.6157C45.3212 61.6157 45.0413 61.4997 44.835 61.2934C44.6286 61.0871 44.5127 60.8073 44.5127 60.5155C44.5127 60.2236 44.6286 59.9439 44.835 59.7375C45.0413 59.5312 45.3212 59.4152 45.613 59.4152C45.9048 59.4152 46.1846 59.5312 46.391 59.7375C46.5973 59.9439 46.7133 60.2236 46.7133 60.5155ZM44.5127 58.3149C44.5127 58.6067 44.3968 58.8865 44.1904 59.0928C43.9841 59.2992 43.7042 59.4152 43.4124 59.4152C43.1206 59.4152 42.8408 59.2992 42.6344 59.0928C42.4281 58.8865 42.3121 58.6067 42.3121 58.3149C42.3121 58.0231 42.4281 57.7433 42.6344 57.537C42.8408 57.3306 43.1206 57.2146 43.4124 57.2146C43.7042 57.2146 43.9841 57.3306 44.1904 57.537C44.3968 57.7433 44.5127 58.0231 44.5127 58.3149ZM51.1144 60.5155C51.1144 60.8073 50.9985 61.0871 50.7921 61.2934C50.5858 61.4997 50.3059 61.6157 50.0141 61.6157C49.7223 61.6157 49.4425 61.4997 49.2361 61.2934C49.0298 61.0871 48.9138 60.8073 48.9138 60.5155C48.9138 60.2236 49.0298 59.9439 49.2361 59.7375C49.4425 59.5312 49.7223 59.4152 50.0141 59.4152C50.3059 59.4152 50.5858 59.5312 50.7921 59.7375C50.9985 59.9439 51.1144 60.2236 51.1144 60.5155ZM55.5155 60.5155C55.5155 60.8073 55.3996 61.0871 55.1932 61.2934C54.9869 61.4997 54.7071 61.6157 54.4152 61.6157C54.1234 61.6157 53.8436 61.4997 53.6372 61.2934C53.4309 61.0871 53.315 60.8073 53.315 60.5155C53.315 60.2236 53.4309 59.9439 53.6372 59.7375C53.8436 59.5312 54.1234 59.4152 54.4152 59.4152C54.7071 59.4152 54.9869 59.5312 55.1932 59.7375C55.3996 59.9439 55.5155 60.2236 55.5155 60.5155ZM59.9166 60.5155C59.9166 60.8073 59.8007 61.0871 59.5944 61.2934C59.388 61.4997 59.1082 61.6157 58.8164 61.6157C58.5246 61.6157 58.2447 61.4997 58.0384 61.2934C57.832 61.0871 57.7161 60.8073 57.7161 60.5155C57.7161 60.2236 57.832 59.9439 58.0384 59.7375C58.2447 59.5312 58.5246 59.4152 58.8164 59.4152C59.1082 59.4152 59.388 59.5312 59.5944 59.7375C59.8007 59.9439 59.9166 60.2236 59.9166 60.5155ZM57.7161 58.3149C57.7161 58.6067 57.6001 58.8865 57.3938 59.0928C57.1875 59.2992 56.9076 59.4152 56.6158 59.4152C56.324 59.4152 56.0441 59.2992 55.8378 59.0928C55.6315 58.8865 55.5155 58.6067 55.5155 58.3149C55.5155 58.0231 55.6315 57.7433 55.8378 57.537C56.0441 57.3306 56.324 57.2146 56.6158 57.2146C56.9076 57.2146 57.1875 57.3306 57.3938 57.537C57.6001 57.7433 57.7161 58.0231 57.7161 58.3149ZM62.1172 58.3149C62.1172 58.6067 62.0013 58.8865 61.7949 59.0928C61.5886 59.2992 61.3087 59.4152 61.0169 59.4152C60.7251 59.4152 60.4453 59.2992 60.2389 59.0928C60.0326 58.8865 59.9166 58.6067 59.9166 58.3149C59.9166 58.0231 60.0326 57.7433 60.2389 57.537C60.4453 57.3306 60.7251 57.2146 61.0169 57.2146C61.3087 57.2146 61.5886 57.3306 61.7949 57.537C62.0013 57.7433 62.1172 58.0231 62.1172 58.3149ZM48.9138 58.3149C48.9138 58.6067 48.7979 58.8865 48.5916 59.0928C48.3852 59.2992 48.1054 59.4152 47.8136 59.4152C47.5217 59.4152 47.2419 59.2992 47.0356 59.0928C46.8292 58.8865 46.7133 58.6067 46.7133 58.3149C46.7133 58.0231 46.8292 57.7433 47.0356 57.537C47.2419 57.3306 47.5217 57.2146 47.8136 57.2146C48.1054 57.2146 48.3852 57.3306 48.5916 57.537C48.7979 57.7433 48.9138 58.0231 48.9138 58.3149ZM53.315 58.3149C53.315 58.6067 53.199 58.8865 52.9927 59.0928C52.7863 59.2992 52.5065 59.4152 52.2147 59.4152C51.9229 59.4152 51.643 59.2992 51.4367 59.0928C51.2303 58.8865 51.1144 58.6067 51.1144 58.3149C51.1144 58.0231 51.2303 57.7433 51.4367 57.537C51.643 57.3306 51.9229 57.2146 52.2147 57.2146C52.5065 57.2146 52.7863 57.3306 52.9927 57.537C53.199 57.7433 53.315 58.0231 53.315 58.3149ZM7.10315 56.1143C7.10315 56.4062 6.98721 56.6859 6.78087 56.8923C6.57453 57.0986 6.29468 57.2146 6.00287 57.2146C5.71106 57.2146 5.43121 57.0986 5.22487 56.8923C5.01853 56.6859 4.90259 56.4062 4.90259 56.1143C4.90259 55.8225 5.01853 55.5427 5.22487 55.3364C5.43121 55.1301 5.71106 55.0141 6.00287 55.0141C6.29468 55.0141 6.57453 55.1301 6.78087 55.3364C6.98721 55.5427 7.10315 55.8225 7.10315 56.1143ZM11.5043 56.1143C11.5043 56.4062 11.3883 56.6859 11.182 56.8923C10.9757 57.0986 10.6958 57.2146 10.404 57.2146C10.1122 57.2146 9.83234 57.0986 9.62599 56.8923C9.41965 56.6859 9.30371 56.4062 9.30371 56.1143C9.30371 55.8225 9.41965 55.5427 9.62599 55.3364C9.83234 55.1301 10.1122 55.0141 10.404 55.0141C10.6958 55.0141 10.9757 55.1301 11.182 55.3364C11.3883 55.5427 11.5043 55.8225 11.5043 56.1143ZM15.9054 56.1143C15.9054 56.4062 15.7895 56.6859 15.5831 56.8923C15.3768 57.0986 15.0969 57.2146 14.8051 57.2146C14.5133 57.2146 14.2335 57.0986 14.0271 56.8923C13.8208 56.6859 13.7048 56.4062 13.7048 56.1143C13.7048 55.8225 13.8208 55.5427 14.0271 55.3364C14.2335 55.1301 14.5133 55.0141 14.8051 55.0141C15.0969 55.0141 15.3768 55.1301 15.5831 55.3364C15.7895 55.5427 15.9054 55.8225 15.9054 56.1143ZM13.7048 53.9138C13.7048 54.2056 13.5889 54.4854 13.3826 54.6917C13.1762 54.8981 12.8964 55.0141 12.6046 55.0141C12.3127 55.0141 12.0329 54.8981 11.8266 54.6917C11.6202 54.4854 11.5043 54.2056 11.5043 53.9138C11.5043 53.622 11.6202 53.3422 11.8266 53.1358C12.0329 52.9295 12.3127 52.8135 12.6046 52.8135C12.8964 52.8135 13.1762 52.9295 13.3826 53.1358C13.5889 53.3422 13.7048 53.622 13.7048 53.9138ZM20.3065 56.1143C20.3065 56.4062 20.1906 56.6859 19.9842 56.8923C19.7779 57.0986 19.4981 57.2146 19.2062 57.2146C18.9144 57.2146 18.6346 57.0986 18.4282 56.8923C18.2219 56.6859 18.106 56.4062 18.106 56.1143C18.106 55.8225 18.2219 55.5427 18.4282 55.3364C18.6346 55.1301 18.9144 55.0141 19.2062 55.0141C19.4981 55.0141 19.7779 55.1301 19.9842 55.3364C20.1906 55.5427 20.3065 55.8225 20.3065 56.1143ZM9.30371 53.9138C9.30371 54.2056 9.18778 54.4854 8.98143 54.6917C8.77509 54.8981 8.49525 55.0141 8.20343 55.0141C7.91162 55.0141 7.63177 54.8981 7.42543 54.6917C7.21909 54.4854 7.10315 54.2056 7.10315 53.9138C7.10315 53.622 7.21909 53.3422 7.42543 53.1358C7.63177 52.9295 7.91162 52.8135 8.20343 52.8135C8.49525 52.8135 8.77509 52.9295 8.98143 53.1358C9.18778 53.3422 9.30371 53.622 9.30371 53.9138ZM51.1144 56.1143C51.1144 56.4062 50.9985 56.6859 50.7921 56.8923C50.5858 57.0986 50.3059 57.2146 50.0141 57.2146C49.7223 57.2146 49.4425 57.0986 49.2361 56.8923C49.0298 56.6859 48.9138 56.4062 48.9138 56.1143C48.9138 55.8225 49.0298 55.5427 49.2361 55.3364C49.4425 55.1301 49.7223 55.0141 50.0141 55.0141C50.3059 55.0141 50.5858 55.1301 50.7921 55.3364C50.9985 55.5427 51.1144 55.8225 51.1144 56.1143ZM55.5155 56.1143C55.5155 56.4062 55.3996 56.6859 55.1932 56.8923C54.9869 57.0986 54.7071 57.2146 54.4152 57.2146C54.1234 57.2146 53.8436 57.0986 53.6372 56.8923C53.4309 56.6859 53.315 56.4062 53.315 56.1143C53.315 55.8225 53.4309 55.5427 53.6372 55.3364C53.8436 55.1301 54.1234 55.0141 54.4152 55.0141C54.7071 55.0141 54.9869 55.1301 55.1932 55.3364C55.3996 55.5427 55.5155 55.8225 55.5155 56.1143ZM59.9166 56.1143C59.9166 56.4062 59.8007 56.6859 59.5944 56.8923C59.388 57.0986 59.1082 57.2146 58.8164 57.2146C58.5246 57.2146 58.2447 57.0986 58.0384 56.8923C57.832 56.6859 57.7161 56.4062 57.7161 56.1143C57.7161 55.8225 57.832 55.5427 58.0384 55.3364C58.2447 55.1301 58.5246 55.0141 58.8164 55.0141C59.1082 55.0141 59.388 55.1301 59.5944 55.3364C59.8007 55.5427 59.9166 55.8225 59.9166 56.1143ZM57.7161 53.9138C57.7161 54.2056 57.6001 54.4854 57.3938 54.6917C57.1875 54.8981 56.9076 55.0141 56.6158 55.0141C56.324 55.0141 56.0441 54.8981 55.8378 54.6917C55.6315 54.4854 55.5155 54.2056 55.5155 53.9138C55.5155 53.622 55.6315 53.3422 55.8378 53.1358C56.0441 52.9295 56.324 52.8135 56.6158 52.8135C56.9076 52.8135 57.1875 52.9295 57.3938 53.1358C57.6001 53.3422 57.7161 53.622 57.7161 53.9138ZM62.1172 53.9138C62.1172 54.2056 62.0013 54.4854 61.7949 54.6917C61.5886 54.8981 61.3087 55.0141 61.0169 55.0141C60.7251 55.0141 60.4453 54.8981 60.2389 54.6917C60.0326 54.4854 59.9166 54.2056 59.9166 53.9138C59.9166 53.622 60.0326 53.3422 60.2389 53.1358C60.4453 52.9295 60.7251 52.8135 61.0169 52.8135C61.3087 52.8135 61.5886 52.9295 61.7949 53.1358C62.0013 53.3422 62.1172 53.622 62.1172 53.9138ZM53.315 53.9138C53.315 54.2056 53.199 54.4854 52.9927 54.6917C52.7863 54.8981 52.5065 55.0141 52.2147 55.0141C51.9229 55.0141 51.643 54.8981 51.4367 54.6917C51.2303 54.4854 51.1144 54.2056 51.1144 53.9138C51.1144 53.622 51.2303 53.3422 51.4367 53.1358C51.643 52.9295 51.9229 52.8135 52.2147 52.8135C52.5065 52.8135 52.7863 52.9295 52.9927 53.1358C53.199 53.3422 53.315 53.622 53.315 53.9138ZM7.10315 51.7132C7.10315 52.005 6.98721 52.2848 6.78087 52.4911C6.57453 52.6975 6.29468 52.8135 6.00287 52.8135C5.71106 52.8135 5.43121 52.6975 5.22487 52.4911C5.01853 52.2848 4.90259 52.005 4.90259 51.7132C4.90259 51.4214 5.01853 51.1416 5.22487 50.9353C5.43121 50.7289 5.71106 50.6129 6.00287 50.6129C6.29468 50.6129 6.57453 50.7289 6.78087 50.9353C6.98721 51.1416 7.10315 51.4214 7.10315 51.7132ZM11.5043 51.7132C11.5043 52.005 11.3883 52.2848 11.182 52.4911C10.9757 52.6975 10.6958 52.8135 10.404 52.8135C10.1122 52.8135 9.83234 52.6975 9.62599 52.4911C9.41965 52.2848 9.30371 52.005 9.30371 51.7132C9.30371 51.4214 9.41965 51.1416 9.62599 50.9353C9.83234 50.7289 10.1122 50.6129 10.404 50.6129C10.6958 50.6129 10.9757 50.7289 11.182 50.9353C11.3883 51.1416 11.5043 51.4214 11.5043 51.7132ZM9.30371 49.5126C9.30371 49.8045 9.18778 50.0842 8.98143 50.2906C8.77509 50.4969 8.49525 50.6129 8.20343 50.6129C7.91162 50.6129 7.63177 50.4969 7.42543 50.2906C7.21909 50.0842 7.10315 49.8045 7.10315 49.5126C7.10315 49.2208 7.21909 48.9411 7.42543 48.7347C7.63177 48.5284 7.91162 48.4124 8.20343 48.4124C8.49525 48.4124 8.77509 48.5284 8.98143 48.7347C9.18778 48.9411 9.30371 49.2208 9.30371 49.5126ZM55.5155 51.7132C55.5155 52.005 55.3996 52.2848 55.1932 52.4911C54.9869 52.6975 54.7071 52.8135 54.4152 52.8135C54.1234 52.8135 53.8436 52.6975 53.6372 52.4911C53.4309 52.2848 53.315 52.005 53.315 51.7132C53.315 51.4214 53.4309 51.1416 53.6372 50.9353C53.8436 50.7289 54.1234 50.6129 54.4152 50.6129C54.7071 50.6129 54.9869 50.7289 55.1932 50.9353C55.3996 51.1416 55.5155 51.4214 55.5155 51.7132ZM59.9166 51.7132C59.9166 52.005 59.8007 52.2848 59.5944 52.4911C59.388 52.6975 59.1082 52.8135 58.8164 52.8135C58.5246 52.8135 58.2447 52.6975 58.0384 52.4911C57.832 52.2848 57.7161 52.005 57.7161 51.7132C57.7161 51.4214 57.832 51.1416 58.0384 50.9353C58.2447 50.7289 58.5246 50.6129 58.8164 50.6129C59.1082 50.6129 59.388 50.7289 59.5944 50.9353C59.8007 51.1416 59.9166 51.4214 59.9166 51.7132ZM57.7161 49.5126C57.7161 49.8045 57.6001 50.0842 57.3938 50.2906C57.1875 50.4969 56.9076 50.6129 56.6158 50.6129C56.324 50.6129 56.0441 50.4969 55.8378 50.2906C55.6315 50.0842 55.5155 49.8045 55.5155 49.5126C55.5155 49.2208 55.6315 48.9411 55.8378 48.7347C56.0441 48.5284 56.324 48.4124 56.6158 48.4124C56.9076 48.4124 57.1875 48.5284 57.3938 48.7347C57.6001 48.9411 57.7161 49.2208 57.7161 49.5126ZM62.1172 49.5126C62.1172 49.8045 62.0013 50.0842 61.7949 50.2906C61.5886 50.4969 61.3087 50.6129 61.0169 50.6129C60.7251 50.6129 60.4453 50.4969 60.2389 50.2906C60.0326 50.0842 59.9166 49.8045 59.9166 49.5126C59.9166 49.2208 60.0326 48.9411 60.2389 48.7347C60.4453 48.5284 60.7251 48.4124 61.0169 48.4124C61.3087 48.4124 61.5886 48.5284 61.7949 48.7347C62.0013 48.9411 62.1172 49.2208 62.1172 49.5126ZM7.10315 47.3121C7.10315 47.6039 6.98721 47.8837 6.78087 48.09C6.57453 48.2964 6.29468 48.4124 6.00287 48.4124C5.71106 48.4124 5.43121 48.2964 5.22487 48.09C5.01853 47.8837 4.90259 47.6039 4.90259 47.3121C4.90259 47.0203 5.01853 46.7405 5.22487 46.5342C5.43121 46.3278 5.71106 46.2118 6.00287 46.2118C6.29468 46.2118 6.57453 46.3278 6.78087 46.5342C6.98721 46.7405 7.10315 47.0203 7.10315 47.3121ZM11.5043 47.3121C11.5043 47.6039 11.3883 47.8837 11.182 48.09C10.9757 48.2964 10.6958 48.4124 10.404 48.4124C10.1122 48.4124 9.83234 48.2964 9.62599 48.09C9.41965 47.8837 9.30371 47.6039 9.30371 47.3121C9.30371 47.0203 9.41965 46.7405 9.62599 46.5342C9.83234 46.3278 10.1122 46.2118 10.404 46.2118C10.6958 46.2118 10.9757 46.3278 11.182 46.5342C11.3883 46.7405 11.5043 47.0203 11.5043 47.3121ZM9.30371 45.1115C9.30371 45.4033 9.18778 45.6831 8.98143 45.8895C8.77509 46.0958 8.49525 46.2118 8.20343 46.2118C7.91162 46.2118 7.63177 46.0958 7.42543 45.8895C7.21909 45.6831 7.10315 45.4033 7.10315 45.1115C7.10315 44.8197 7.21909 44.5399 7.42543 44.3336C7.63177 44.1273 7.91162 44.0112 8.20343 44.0112C8.49525 44.0112 8.77509 44.1273 8.98143 44.3336C9.18778 44.5399 9.30371 44.8197 9.30371 45.1115ZM59.9166 47.3121C59.9166 47.6039 59.8007 47.8837 59.5944 48.09C59.388 48.2964 59.1082 48.4124 58.8164 48.4124C58.5246 48.4124 58.2447 48.2964 58.0384 48.09C57.832 47.8837 57.7161 47.6039 57.7161 47.3121C57.7161 47.0203 57.832 46.7405 58.0384 46.5342C58.2447 46.3278 58.5246 46.2118 58.8164 46.2118C59.1082 46.2118 59.388 46.3278 59.5944 46.5342C59.8007 46.7405 59.9166 47.0203 59.9166 47.3121ZM62.1172 45.1115C62.1172 45.4033 62.0013 45.6831 61.7949 45.8895C61.5886 46.0958 61.3087 46.2118 61.0169 46.2118C60.7251 46.2118 60.4453 46.0958 60.2389 45.8895C60.0326 45.6831 59.9166 45.4033 59.9166 45.1115C59.9166 44.8197 60.0326 44.5399 60.2389 44.3336C60.4453 44.1273 60.7251 44.0112 61.0169 44.0112C61.3087 44.0112 61.5886 44.1273 61.7949 44.3336C62.0013 44.5399 62.1172 44.8197 62.1172 45.1115ZM7.10315 42.911C7.10315 43.2028 6.98721 43.4826 6.78087 43.6889C6.57453 43.8952 6.29468 44.0112 6.00287 44.0112C5.71106 44.0112 5.43121 43.8952 5.22487 43.6889C5.01853 43.4826 4.90259 43.2028 4.90259 42.911C4.90259 42.6192 5.01853 42.3394 5.22487 42.133C5.43121 41.9267 5.71106 41.8107 6.00287 41.8107C6.29468 41.8107 6.57453 41.9267 6.78087 42.133C6.98721 42.3394 7.10315 42.6192 7.10315 42.911ZM59.9166 42.911C59.9166 43.2028 59.8007 43.4826 59.5944 43.6889C59.388 43.8952 59.1082 44.0112 58.8164 44.0112C58.5246 44.0112 58.2447 43.8952 58.0384 43.6889C57.832 43.4826 57.7161 43.2028 57.7161 42.911C57.7161 42.6192 57.832 42.3394 58.0384 42.133C58.2447 41.9267 58.5246 41.8107 58.8164 41.8107C59.1082 41.8107 59.388 41.9267 59.5944 42.133C59.8007 42.3394 59.9166 42.6192 59.9166 42.911ZM62.1172 40.7104C62.1172 41.0022 62.0013 41.282 61.7949 41.4883C61.5886 41.6947 61.3087 41.8107 61.0169 41.8107C60.7251 41.8107 60.4453 41.6947 60.2389 41.4883C60.0326 41.282 59.9166 41.0022 59.9166 40.7104C59.9166 40.4186 60.0326 40.1388 60.2389 39.9325C60.4453 39.7261 60.7251 39.6101 61.0169 39.6101C61.3087 39.6101 61.5886 39.7261 61.7949 39.9325C62.0013 40.1388 62.1172 40.4186 62.1172 40.7104ZM7.10315 38.5098C7.10315 38.8017 6.98721 39.0814 6.78087 39.2878C6.57453 39.4941 6.29468 39.6101 6.00287 39.6101C5.71106 39.6101 5.43121 39.4941 5.22487 39.2878C5.01853 39.0814 4.90259 38.8017 4.90259 38.5098C4.90259 38.218 5.01853 37.9382 5.22487 37.7319C5.43121 37.5256 5.71106 37.4096 6.00287 37.4096C6.29468 37.4096 6.57453 37.5256 6.78087 37.7319C6.98721 37.9382 7.10315 38.218 7.10315 38.5098ZM59.9166 38.5098C59.9166 38.8017 59.8007 39.0814 59.5944 39.2878C59.388 39.4941 59.1082 39.6101 58.8164 39.6101C58.5246 39.6101 58.2447 39.4941 58.0384 39.2878C57.832 39.0814 57.7161 38.8017 57.7161 38.5098C57.7161 38.218 57.832 37.9382 58.0384 37.7319C58.2447 37.5256 58.5246 37.4096 58.8164 37.4096C59.1082 37.4096 59.388 37.5256 59.5944 37.7319C59.8007 37.9382 59.9166 38.218 59.9166 38.5098ZM62.1172 36.3093C62.1172 36.6011 62.0013 36.8809 61.7949 37.0872C61.5886 37.2936 61.3087 37.4096 61.0169 37.4096C60.7251 37.4096 60.4453 37.2936 60.2389 37.0872C60.0326 36.8809 59.9166 36.6011 59.9166 36.3093C59.9166 36.0175 60.0326 35.7377 60.2389 35.5313C60.4453 35.325 60.7251 35.209 61.0169 35.209C61.3087 35.209 61.5886 35.325 61.7949 35.5313C62.0013 35.7377 62.1172 36.0175 62.1172 36.3093Z" fill="white"/>
</svg>
