<svg width="45" height="52" viewBox="0 0 45 52" fill="none" xmlns="http://www.w3.org/2000/svg">
<path fill-rule="evenodd" clip-rule="evenodd" d="M17.4324 44.6299C17.7532 44.6299 18.0667 44.726 18.3334 44.9059C18.6 45.0859 18.8079 45.3417 18.9306 45.641C19.0534 45.9402 19.0855 46.2695 19.0229 46.5872C18.9603 46.9049 18.8059 47.1968 18.5791 47.4258C18.3523 47.6549 18.0634 47.8108 17.7488 47.874C17.4342 47.9372 17.1082 47.9048 16.8119 47.7808C16.5156 47.6569 16.2623 47.447 16.0841 47.1776C15.9059 46.9083 15.8108 46.5916 15.8108 46.2677C15.8108 45.8333 15.9817 45.4168 16.2858 45.1096C16.5899 44.8025 17.0024 44.6299 17.4324 44.6299V44.6299ZM9.12162 40.9449C9.56262 40.9449 9.99372 41.077 10.3604 41.3244C10.7271 41.5719 11.0129 41.9236 11.1816 42.3351C11.3504 42.7466 11.3945 43.1994 11.3085 43.6362C11.2225 44.073 11.0101 44.4743 10.6983 44.7892C10.3864 45.1042 9.98915 45.3187 9.55662 45.4055C9.12409 45.4924 8.67577 45.4478 8.26834 45.2774C7.86091 45.107 7.51268 44.8183 7.26767 44.448C7.02266 44.0776 6.89189 43.6422 6.89189 43.1969C6.89189 42.5996 7.12681 42.0268 7.54496 41.6045C7.96312 41.1821 8.53026 40.9449 9.12162 40.9449ZM13.7838 35.2126C14.4252 35.2126 15.0523 35.4047 15.5856 35.7646C16.119 36.1246 16.5347 36.6361 16.7801 37.2347C17.0256 37.8332 17.0899 38.4918 16.9647 39.1272C16.8396 39.7626 16.5307 40.3463 16.0771 40.8044C15.6235 41.2625 15.0456 41.5745 14.4165 41.7008C13.7874 41.8272 13.1353 41.7624 12.5426 41.5144C11.95 41.2665 11.4435 40.8467 11.0871 40.308C10.7308 39.7693 10.5405 39.136 10.5405 38.4882C10.5405 37.6194 10.8822 36.7863 11.4905 36.172C12.0987 35.5577 12.9236 35.2126 13.7838 35.2126ZM13.1757 28.6614C13.6969 28.6614 14.2063 28.8175 14.6397 29.1099C15.073 29.4024 15.4108 29.818 15.6102 30.3044C15.8097 30.7907 15.8619 31.3258 15.7602 31.8421C15.6585 32.3583 15.4075 32.8325 15.039 33.2047C14.6705 33.5769 14.2009 33.8304 13.6898 33.9331C13.1786 34.0358 12.6488 33.9831 12.1673 33.7817C11.6857 33.5802 11.2742 33.2391 10.9846 32.8014C10.6951 32.3638 10.5405 31.8492 10.5405 31.3228C10.5405 30.617 10.8182 29.94 11.3124 29.4409C11.8065 28.9418 12.4768 28.6614 13.1757 28.6614V28.6614ZM5.67568 33.1654C5.9964 33.1654 6.30993 33.2614 6.5766 33.4414C6.84327 33.6213 7.05112 33.8771 7.17386 34.1764C7.2966 34.4757 7.32871 34.805 7.26614 35.1227C7.20357 35.4404 7.04912 35.7322 6.82233 35.9612C6.59555 36.1903 6.3066 36.3463 5.99204 36.4095C5.67747 36.4727 5.35142 36.4402 5.05511 36.3163C4.7588 36.1923 4.50553 35.9824 4.32735 35.7131C4.14916 35.4437 4.05405 35.1271 4.05405 34.8032C4.05405 34.3688 4.2249 33.9522 4.52902 33.6451C4.83313 33.3379 5.24559 33.1654 5.67568 33.1654V33.1654ZM15.8108 24.5669C16.1315 24.5669 16.4451 24.663 16.7117 24.8429C16.9784 25.0229 17.1863 25.2787 17.309 25.578C17.4317 25.8772 17.4638 26.2065 17.4013 26.5242C17.3387 26.8419 17.1843 27.1338 16.9575 27.3628C16.7307 27.5919 16.4417 27.7479 16.1272 27.8111C15.8126 27.8742 15.4866 27.8418 15.1902 27.7179C14.8939 27.5939 14.6407 27.384 14.4625 27.1146C14.2843 26.8453 14.1892 26.5287 14.1892 26.2047C14.1892 25.7704 14.36 25.3538 14.6642 25.0466C14.9683 24.7395 15.3807 24.5669 15.8108 24.5669V24.5669ZM8.51351 22.9291C9.15497 22.9291 9.78201 23.1212 10.3154 23.4812C10.8487 23.8411 11.2644 24.3527 11.5099 24.9512C11.7554 25.5497 11.8196 26.2084 11.6944 26.8438C11.5693 27.4792 11.2604 28.0628 10.8068 28.5209C10.3533 28.979 9.77537 29.291 9.14624 29.4174C8.51711 29.5438 7.865 29.4789 7.27238 29.231C6.67975 28.9831 6.17323 28.5632 5.81686 28.0245C5.46048 27.4859 5.27027 26.8526 5.27027 26.2047C5.27027 25.336 5.61197 24.5028 6.22019 23.8885C6.82842 23.2742 7.65335 22.9291 8.51351 22.9291V22.9291ZM2.02703 24.1575C2.42794 24.1575 2.81984 24.2775 3.15318 24.5025C3.48653 24.7275 3.74634 25.0472 3.89976 25.4213C4.05318 25.7954 4.09332 26.207 4.01511 26.6041C3.93689 27.0012 3.74384 27.366 3.46035 27.6523C3.17687 27.9387 2.81569 28.1336 2.42248 28.2126C2.02928 28.2916 1.62171 28.2511 1.25132 28.0961C0.880927 27.9412 0.564348 27.6788 0.341616 27.3421C0.118883 27.0054 0 26.6096 0 26.2047C0 25.6618 0.213561 25.141 0.593702 24.7571C0.973844 24.3732 1.48943 24.1575 2.02703 24.1575V24.1575ZM13.1757 18.4252C13.6969 18.4252 14.2063 18.5813 14.6397 18.8737C15.073 19.1662 15.4108 19.5818 15.6102 20.0681C15.8097 20.5544 15.8619 21.0896 15.7602 21.6058C15.6585 22.1221 15.4075 22.5963 15.039 22.9685C14.6705 23.3407 14.2009 23.5942 13.6898 23.6969C13.1786 23.7996 12.6488 23.7469 12.1673 23.5454C11.6857 23.344 11.2742 23.0029 10.9846 22.5652C10.6951 22.1276 10.5405 21.613 10.5405 21.0866C10.5405 20.3808 10.8182 19.7038 11.3124 19.2047C11.8065 18.7056 12.4768 18.4252 13.1757 18.4252V18.4252ZM5.87838 16.378C6.15901 16.378 6.43335 16.462 6.66669 16.6195C6.90003 16.7769 7.08189 17.0008 7.18929 17.2626C7.29668 17.5245 7.32478 17.8126 7.27003 18.0906C7.21528 18.3686 7.08015 18.6239 6.88171 18.8244C6.68327 19.0248 6.43044 19.1613 6.1552 19.2166C5.87995 19.2719 5.59466 19.2435 5.33538 19.135C5.07611 19.0265 4.8545 18.8429 4.69859 18.6072C4.54268 18.3715 4.45946 18.0945 4.45946 17.811C4.45946 17.431 4.60895 17.0664 4.87505 16.7977C5.14115 16.5289 5.50206 16.378 5.87838 16.378V16.378ZM18.6486 17.6063C18.9694 17.6063 19.2829 17.7024 19.5496 17.8823C19.8162 18.0623 20.0241 18.3181 20.1468 18.6173C20.2696 18.9166 20.3017 19.2459 20.2391 19.5636C20.1765 19.8813 20.0221 20.1731 19.7953 20.4022C19.5685 20.6312 19.2796 20.7872 18.965 20.8504C18.6504 20.9136 18.3244 20.8812 18.0281 20.7572C17.7318 20.6333 17.4785 20.4233 17.3003 20.154C17.1221 19.8847 17.027 19.568 17.027 19.2441C17.027 18.8097 17.1979 18.3931 17.502 18.086C17.8061 17.7789 18.2186 17.6063 18.6486 17.6063V17.6063ZM25.5405 14.7402C25.8613 14.7402 26.1748 14.8362 26.4415 15.0162C26.7081 15.1961 26.916 15.4519 27.0387 15.7512C27.1615 16.0505 27.1936 16.3798 27.131 16.6975C27.0684 17.0152 26.914 17.307 26.6872 17.536C26.4604 17.7651 26.1715 17.9211 25.8569 17.9843C25.5423 18.0475 25.2163 18.015 24.92 17.8911C24.6237 17.7671 24.3704 17.5572 24.1922 17.2879C24.014 17.0185 23.9189 16.7019 23.9189 16.378C23.9189 15.9436 24.0898 15.527 24.3939 15.2199C24.698 14.9127 25.1105 14.7402 25.5405 14.7402V14.7402ZM20.0676 11.0551C20.5887 11.0551 21.0982 11.2112 21.5316 11.5036C21.9649 11.7961 22.3027 12.2117 22.5021 12.6981C22.7016 13.1844 22.7537 13.7195 22.6521 14.2358C22.5504 14.752 22.2994 15.2262 21.9309 15.5984C21.5624 15.9706 21.0928 16.2241 20.5817 16.3268C20.0705 16.4295 19.5407 16.3768 19.0591 16.1754C18.5776 15.9739 18.1661 15.6328 17.8765 15.1951C17.587 14.7575 17.4324 14.2429 17.4324 13.7165C17.4324 13.0107 17.7101 12.3337 18.2042 11.8346C18.6984 11.3355 19.3687 11.0551 20.0676 11.0551V11.0551ZM13.1757 10.6457C13.777 10.6457 14.3649 10.8258 14.8649 11.1632C15.3649 11.5006 15.7546 11.9802 15.9848 12.5414C16.2149 13.1025 16.2751 13.7199 16.1578 14.3156C16.0405 14.9113 15.7509 15.4585 15.3257 15.888C14.9004 16.3174 14.3587 16.6099 13.7689 16.7284C13.179 16.8469 12.5677 16.7861 12.0121 16.5536C11.4565 16.3212 10.9817 15.9276 10.6476 15.4226C10.3135 14.9176 10.1351 14.3239 10.1351 13.7165C10.1351 12.9021 10.4555 12.121 11.0257 11.5451C11.5959 10.9692 12.3693 10.6457 13.1757 10.6457V10.6457ZM8.51351 7.37008C8.91442 7.37008 9.30633 7.49015 9.63967 7.7151C9.97301 7.94006 10.2328 8.25979 10.3862 8.63388C10.5397 9.00796 10.5798 9.41959 10.5016 9.81672C10.4234 10.2138 10.2303 10.5786 9.94684 10.8649C9.66335 11.1513 9.30217 11.3462 8.90897 11.4252C8.51576 11.5042 8.10819 11.4637 7.7378 11.3087C7.36741 11.1538 7.05083 10.8914 6.8281 10.5547C6.60537 10.218 6.48649 9.82223 6.48649 9.41732C6.48649 8.87436 6.70005 8.35364 7.08019 7.9697C7.46033 7.58577 7.97591 7.37008 8.51351 7.37008V7.37008ZM17.2297 4.50394C17.5104 4.50394 17.7847 4.58799 18.018 4.74545C18.2514 4.90292 18.4332 5.12674 18.5406 5.3886C18.648 5.65046 18.6761 5.9386 18.6214 6.21659C18.5666 6.49457 18.4315 6.74992 18.2331 6.95034C18.0346 7.15076 17.7818 7.28725 17.5065 7.34254C17.2313 7.39784 16.946 7.36946 16.6867 7.26099C16.4275 7.15253 16.2059 6.96885 16.0499 6.73318C15.894 6.49751 15.8108 6.22044 15.8108 5.93701C15.8108 5.55693 15.9603 5.19243 16.2264 4.92367C16.4925 4.65492 16.8534 4.50394 17.2297 4.50394ZM33.8514 4.50394C34.132 4.50394 34.4063 4.58799 34.6397 4.74545C34.873 4.90292 35.0549 5.12674 35.1623 5.3886C35.2697 5.65046 35.2978 5.9386 35.243 6.21659C35.1883 6.49457 35.0531 6.74992 34.8547 6.95034C34.6562 7.15076 34.4034 7.28725 34.1282 7.34254C33.8529 7.39784 33.5676 7.36946 33.3084 7.26099C33.0491 7.15253 32.8275 6.96885 32.6716 6.73318C32.5157 6.49751 32.4324 6.22044 32.4324 5.93701C32.4324 5.55693 32.5819 5.19243 32.848 4.92367C33.1141 4.65492 33.475 4.50394 33.8514 4.50394V4.50394ZM25.3378 5.73228C25.9392 5.73228 26.5271 5.91239 27.0271 6.24982C27.5271 6.58725 27.9168 7.06685 28.1469 7.62798C28.3771 8.18911 28.4373 8.80656 28.32 9.40225C28.2026 9.99794 27.9131 10.5451 27.4878 10.9746C27.0626 11.404 26.5208 11.6965 25.931 11.815C25.3412 11.9335 24.7299 11.8727 24.1743 11.6403C23.6187 11.4078 23.1438 11.0142 22.8097 10.5092C22.4756 10.0042 22.2973 9.41051 22.2973 8.80315C22.2973 7.98871 22.6176 7.20762 23.1879 6.63172C23.7581 6.05582 24.5314 5.73228 25.3378 5.73228V5.73228ZM25.1351 0C25.536 0 25.9279 0.120069 26.2613 0.345023C26.5946 0.569977 26.8544 0.889713 27.0079 1.2638C27.1613 1.63788 27.2014 2.04952 27.1232 2.44664C27.045 2.84377 26.8519 3.20855 26.5685 3.49486C26.285 3.78118 25.9238 3.97616 25.5306 4.05515C25.1374 4.13414 24.7298 4.0936 24.3594 3.93865C23.989 3.7837 23.6725 3.5213 23.4497 3.18463C23.227 2.84796 23.1081 2.45215 23.1081 2.04724C23.1081 1.50428 23.3217 0.983557 23.7018 0.599624C24.082 0.215691 24.5975 0 25.1351 0V0ZM30.6081 10.6457C31.1293 10.6457 31.6388 10.8018 32.0721 11.0942C32.5055 11.3866 32.8432 11.8023 33.0427 12.2886C33.2421 12.7749 33.2943 13.31 33.1926 13.8263C33.0909 14.3426 32.84 14.8168 32.4714 15.189C32.1029 15.5612 31.6334 15.8147 31.1222 15.9174C30.611 16.0201 30.0812 15.9674 29.5997 15.7659C29.1182 15.5645 28.7066 15.2234 28.4171 14.7857C28.1275 14.348 27.973 13.8335 27.973 13.3071C27.973 12.6012 28.2506 11.9243 28.7448 11.4252C29.239 10.9261 29.9092 10.6457 30.6081 10.6457ZM32.4324 17.1969C32.7532 17.1969 33.0667 17.2929 33.3334 17.4729C33.6 17.6528 33.8079 17.9086 33.9306 18.2079C34.0534 18.5072 34.0855 18.8365 34.0229 19.1542C33.9603 19.4719 33.8059 19.7637 33.5791 19.9927C33.3523 20.2218 33.0634 20.3778 32.7488 20.441C32.4342 20.5042 32.1082 20.4717 31.8119 20.3478C31.5156 20.2238 31.2623 20.0139 31.0841 19.7446C30.9059 19.4752 30.8108 19.1586 30.8108 18.8346C30.8108 18.4003 30.9817 17.9837 31.2858 17.6766C31.5899 17.3694 32.0024 17.1969 32.4324 17.1969ZM37.5 10.6457C38.0212 10.6457 38.5307 10.8018 38.964 11.0942C39.3973 11.3866 39.7351 11.8023 39.9345 12.2886C40.134 12.7749 40.1862 13.31 40.0845 13.8263C39.9828 14.3426 39.7319 14.8168 39.3633 15.189C38.9948 15.5612 38.5253 15.8147 38.0141 15.9174C37.5029 16.0201 36.9731 15.9674 36.4916 15.7659C36.0101 15.5645 35.5985 15.2234 35.309 14.7857C35.0194 14.348 34.8649 13.8335 34.8649 13.3071C34.8649 12.6012 35.1425 11.9243 35.6367 11.4252C36.1309 10.9261 36.8011 10.6457 37.5 10.6457V10.6457ZM42.3649 6.55118C42.8059 6.55118 43.237 6.68326 43.6036 6.93071C43.9703 7.17816 44.2561 7.52987 44.4249 7.94136C44.5936 8.35285 44.6378 8.80565 44.5518 9.24249C44.4657 9.67933 44.2534 10.0806 43.9415 10.3955C43.6297 10.7105 43.2324 10.925 42.7999 11.0118C42.3673 11.0987 41.919 11.0541 41.5116 10.8837C41.1042 10.7133 40.7559 10.4246 40.5109 10.0543C40.2659 9.68394 40.1351 9.24855 40.1351 8.80315C40.1351 8.20589 40.3701 7.63309 40.7882 7.21077C41.2064 6.78844 41.7735 6.55118 42.3649 6.55118V6.55118ZM25.9459 47.9055C26.3469 47.9055 26.7388 48.0256 27.0721 48.2505C27.4054 48.4755 27.6653 48.7952 27.8187 49.1693C27.9721 49.5434 28.0122 49.955 27.934 50.3522C27.8558 50.7493 27.6628 51.1141 27.3793 51.4004C27.0958 51.6867 26.7346 51.8817 26.3414 51.9607C25.9482 52.0397 25.5406 51.9991 25.1702 51.8442C24.7998 51.6892 24.4833 51.4268 24.2605 51.0901C24.0378 50.7535 23.9189 50.3577 23.9189 49.9528C23.9189 49.4098 24.1325 48.8891 24.5126 48.5051C24.8928 48.1212 25.4083 47.9055 25.9459 47.9055ZM34.0541 44.6299C34.3748 44.6299 34.6883 44.726 34.955 44.9059C35.2217 45.0859 35.4295 45.3417 35.5522 45.641C35.675 45.9402 35.7071 46.2695 35.6445 46.5872C35.5819 46.9049 35.4275 47.1968 35.2007 47.4258C34.9739 47.6549 34.685 47.8108 34.3704 47.874C34.0559 47.9372 33.7298 47.9048 33.4335 47.7808C33.1372 47.6569 32.8839 47.447 32.7057 47.1776C32.5275 46.9083 32.4324 46.5916 32.4324 46.2677C32.4324 45.8333 32.6033 45.4168 32.9074 45.1096C33.2115 44.8025 33.624 44.6299 34.0541 44.6299ZM25.9459 33.9843C26.2667 33.9843 26.5802 34.0803 26.8469 34.2603C27.1135 34.4402 27.3214 34.696 27.4441 34.9953C27.5669 35.2946 27.599 35.6239 27.5364 35.9416C27.4738 36.2593 27.3194 36.5511 27.0926 36.7801C26.8658 37.0092 26.5769 37.1652 26.2623 37.2284C25.9477 37.2916 25.6217 37.2591 25.3254 37.1352C25.0291 37.0112 24.7758 36.8013 24.5976 36.532C24.4194 36.2626 24.3243 35.946 24.3243 35.622C24.3243 35.1877 24.4952 34.7711 24.7993 34.464C25.1034 34.1568 25.5159 33.9843 25.9459 33.9843ZM19.0541 31.5276C19.3748 31.5276 19.6883 31.6236 19.955 31.8036C20.2217 31.9835 20.4295 32.2393 20.5522 32.5386C20.675 32.8379 20.7071 33.1672 20.6445 33.4849C20.5819 33.8026 20.4275 34.0944 20.2007 34.3235C19.9739 34.5525 19.685 34.7085 19.3704 34.7717C19.0559 34.8349 18.7298 34.8024 18.4335 34.6785C18.1372 34.5545 17.8839 34.3446 17.7057 34.0753C17.5275 33.8059 17.4324 33.4893 17.4324 33.1654C17.4324 32.731 17.6033 32.3144 17.9074 32.0073C18.2115 31.7001 18.624 31.5276 19.0541 31.5276V31.5276ZM32.4324 31.1181C32.7532 31.1181 33.0667 31.2142 33.3334 31.3941C33.6 31.5741 33.8079 31.8299 33.9306 32.1292C34.0534 32.4284 34.0855 32.7577 34.0229 33.0754C33.9603 33.3931 33.8059 33.685 33.5791 33.914C33.3523 34.1431 33.0634 34.299 32.7488 34.3622C32.4342 34.4254 32.1082 34.393 31.8119 34.269C31.5156 34.1451 31.2623 33.9352 31.0841 33.6658C30.9059 33.3965 30.8108 33.0798 30.8108 32.7559C30.8108 32.3215 30.9817 31.905 31.2858 31.5978C31.5899 31.2907 32.0024 31.1181 32.4324 31.1181ZM25.9459 40.126C26.5874 40.126 27.2144 40.3181 27.7478 40.678C28.2811 41.0379 28.6968 41.5495 28.9423 42.1481C29.1878 42.7466 29.252 43.4052 29.1269 44.0406C29.0017 44.676 28.6928 45.2597 28.2393 45.7178C27.7857 46.1759 27.2078 46.4878 26.5787 46.6142C25.9495 46.7406 25.2974 46.6757 24.7048 46.4278C24.1122 46.1799 23.6057 45.7601 23.2493 45.2214C22.8929 44.6827 22.7027 44.0494 22.7027 43.4016C22.7027 42.5328 23.0444 41.6997 23.6526 41.0854C24.2609 40.4711 25.0858 40.126 25.9459 40.126ZM31.2162 35.622C31.7775 35.622 32.3262 35.7901 32.7928 36.1051C33.2595 36.42 33.6232 36.8676 33.838 37.3914C34.0528 37.9151 34.109 38.4914 33.9995 39.0473C33.89 39.6033 33.6197 40.114 33.2229 40.5149C32.826 40.9157 32.3203 41.1887 31.7699 41.2993C31.2194 41.4098 30.6488 41.3531 30.1302 41.1362C29.6117 40.9192 29.1685 40.5519 28.8566 40.0805C28.5448 39.6092 28.3784 39.0551 28.3784 38.4882C28.3784 37.728 28.6774 36.999 29.2096 36.4615C29.7418 35.924 30.4636 35.622 31.2162 35.622ZM38.1081 35.2126C38.6694 35.2126 39.218 35.3807 39.6847 35.6956C40.1514 36.0106 40.5151 36.4582 40.7299 36.9819C40.9447 37.5056 41.0009 38.0819 40.8914 38.6379C40.7819 39.1939 40.5116 39.7046 40.1148 40.1054C39.7179 40.5062 39.2122 40.7792 38.6617 40.8898C38.1113 41.0004 37.5407 40.9436 37.0221 40.7267C36.5036 40.5098 36.0604 40.1424 35.7485 39.6711C35.4367 39.1998 35.2703 38.6456 35.2703 38.0787C35.2703 37.3186 35.5693 36.5896 36.1015 36.0521C36.6337 35.5146 37.3555 35.2126 38.1081 35.2126V35.2126ZM42.7703 40.126C43.2113 40.126 43.6424 40.2581 44.009 40.5055C44.3757 40.753 44.6615 41.1047 44.8303 41.5162C44.999 41.9277 45.0432 42.3805 44.9572 42.8173C44.8711 43.2541 44.6588 43.6554 44.3469 43.9703C44.0351 44.2853 43.6378 44.4998 43.2053 44.5867C42.7727 44.6735 42.3244 44.6289 41.917 44.4585C41.5096 44.2881 41.1613 43.9994 40.9163 43.6291C40.6713 43.2587 40.5405 42.8234 40.5405 42.378C40.5405 41.7807 40.7755 41.2079 41.1936 40.7856C41.6118 40.3632 42.1789 40.126 42.7703 40.126ZM20.8784 36.0315C21.3996 36.0315 21.909 36.1876 22.3424 36.48C22.7757 36.7725 23.1135 37.1881 23.3129 37.6744C23.5124 38.1607 23.5646 38.6959 23.4629 39.2121C23.3612 39.7284 23.1102 40.2026 22.7417 40.5748C22.3732 40.947 21.9036 41.2005 21.3925 41.3032C20.8813 41.4059 20.3515 41.3532 19.87 41.1517C19.3884 40.9503 18.9769 40.6092 18.6873 40.1715C18.3978 39.7339 18.2432 39.2193 18.2432 38.6929C18.2432 37.9871 18.5209 37.3101 19.0151 36.811C19.5092 36.3119 20.1795 36.0315 20.8784 36.0315V36.0315Z" fill="white"/>
</svg>
