<svg width="43" height="43" viewBox="0 0 43 43" fill="none" xmlns="http://www.w3.org/2000/svg">
<path d="M21.5 40.3125C16.5106 40.3125 11.7256 38.3305 8.19755 34.8024C4.66953 31.2744 2.6875 26.4894 2.6875 21.5C2.6875 16.5106 4.66953 11.7256 8.19755 8.19755C11.7256 4.66953 16.5106 2.6875 21.5 2.6875C26.4894 2.6875 31.2744 4.66953 34.8024 8.19755C38.3305 11.7256 40.3125 16.5106 40.3125 21.5C40.3125 26.4894 38.3305 31.2744 34.8024 34.8024C31.2744 38.3305 26.4894 40.3125 21.5 40.3125ZM21.5 43C27.2022 43 32.6708 40.7348 36.7028 36.7028C40.7348 32.6708 43 27.2022 43 21.5C43 15.7978 40.7348 10.3292 36.7028 6.2972C32.6708 2.26517 27.2022 0 21.5 0C15.7978 0 10.3292 2.26517 6.2972 6.2972C2.26517 10.3292 0 15.7978 0 21.5C0 27.2022 2.26517 32.6708 6.2972 36.7028C10.3292 40.7348 15.7978 43 21.5 43Z" fill="white"/>
<path d="M16.8533 13.5852C17.0731 13.4721 17.3199 13.4217 17.5664 13.4397C17.813 13.4577 18.0498 13.5434 18.2508 13.6874L27.6571 20.4061C27.8313 20.5304 27.9732 20.6945 28.0712 20.8848C28.1692 21.075 28.2203 21.2859 28.2203 21.4999C28.2203 21.7139 28.1692 21.9248 28.0712 22.1151C27.9732 22.3053 27.8313 22.4694 27.6571 22.5937L18.2508 29.3125C18.0499 29.4563 17.8132 29.5419 17.5667 29.5599C17.3203 29.578 17.0737 29.5277 16.8539 29.4146C16.6342 29.3016 16.4499 29.1301 16.3213 28.9191C16.1927 28.7081 16.1248 28.4658 16.125 28.2187V14.7812C16.1247 14.5342 16.1926 14.2918 16.3211 14.0809C16.4496 13.8699 16.6337 13.6984 16.8533 13.5852Z" fill="white"/>
</svg>
